<svg width="19" height="12" viewBox="0 0 19 12" fill="none" xmlns="http://www.w3.org/2000/svg">
<path d="M10.0558 6.03229C10.0985 5.96847 10.1554 5.994 10.2123 5.994C11.0799 5.96847 11.8764 6.47899 12.1751 7.23201C12.2178 7.34688 12.2746 7.47451 12.1466 7.57661C12.104 7.60214 12.1182 7.65319 12.1182 7.70424C12.1609 8.03608 12.104 8.35516 11.9902 8.66147C11.9902 8.67423 12.0044 8.68699 12.0044 8.69976C12.7582 8.48279 13.4694 7.52556 13.0427 6.50452C12.8578 6.04505 12.5022 5.71321 12.0044 5.52177C11.2648 5.24098 10.5679 5.36861 9.92781 5.80255C10.3403 5.15164 11.3644 4.73046 12.3884 5.12611C12.4595 5.15164 12.5449 5.18993 12.5449 5.27927C12.5591 5.36861 12.6302 5.41966 12.7013 5.45795C12.9574 5.59835 13.1565 5.78979 13.3272 6.00676C13.3556 6.04505 13.3698 6.10887 13.4552 6.0961C13.5547 5.85361 13.5405 5.59835 13.4978 5.34309C13.3556 4.59007 12.5733 3.87534 11.4497 3.92639C10.5536 3.96468 9.77136 4.62836 9.67179 5.45795C9.65757 5.54729 9.64335 5.63663 9.62912 5.73874C9.60068 5.71321 9.58646 5.70045 9.58646 5.68769C9.31621 4.88362 9.72869 3.99021 10.6105 3.58179C10.6674 3.55626 10.7385 3.5435 10.7954 3.58179C10.895 3.64561 10.9803 3.60732 11.0799 3.58179C11.3644 3.50521 11.6488 3.45416 11.9475 3.49245C12.0044 3.49245 12.0613 3.51798 12.1182 3.45416C11.6915 2.96917 11.1368 2.72667 10.4541 2.76496C9.62912 2.81601 9.03175 3.1989 8.76151 3.8881C8.43437 4.70494 8.70461 5.38137 9.44422 5.93018C9.43 5.95571 9.41578 5.94295 9.40155 5.94295C8.51971 5.67492 7.93656 4.73046 8.13569 3.91363C8.14991 3.84981 8.17836 3.786 8.24947 3.76047C8.34903 3.72218 8.3917 3.64561 8.42015 3.55626C8.51971 3.31377 8.67617 3.0968 8.87529 2.90535C8.91796 2.86706 8.98908 2.84154 8.96063 2.75219C8.23525 2.75219 7.6521 3.00746 7.26807 3.56903C6.8556 4.16889 6.84137 4.80704 7.25385 5.4069C7.76588 6.13439 8.51971 6.35136 9.44422 6.17268C9.43 6.21097 9.40155 6.22373 9.37311 6.24926C8.56238 6.65768 7.45297 6.47899 6.86982 5.82808C6.82715 5.78979 6.78448 5.73874 6.7987 5.68769C6.86982 5.54729 6.77026 5.44519 6.69914 5.34309C6.59958 5.18993 6.54268 5.03677 6.48579 4.87085C6.45735 4.75599 6.44312 4.64112 6.40045 4.48796C5.94531 4.97296 5.80308 5.48348 5.95953 6.05781C6.17288 6.79807 6.71336 7.25754 7.56676 7.3724C8.54816 7.50003 9.21665 7.09162 9.65757 6.31307C9.68602 6.35136 9.67179 6.38965 9.67179 6.41518C9.48689 7.25754 8.76151 7.83187 7.76588 7.90845C7.68054 7.92121 7.60943 7.89569 7.55253 7.83187C7.49564 7.76806 7.42452 7.74253 7.33918 7.74253C7.02627 7.71701 6.72759 7.6149 6.45735 7.47451C6.41468 7.44898 6.38623 7.41069 6.30089 7.44898C6.44312 8.02332 6.7987 8.4445 7.39608 8.68699C8.13569 8.99331 8.86107 8.90397 9.45845 8.43173C10.2265 7.83187 10.3118 7.07885 9.89937 6.24926C9.94204 6.26202 9.95626 6.27479 9.97048 6.28755C10.6105 6.90017 10.6816 7.88292 10.1269 8.57213C10.07 8.63594 10.0132 8.69976 9.91359 8.69976C9.81403 8.68699 9.74291 8.73805 9.68602 8.80186C9.48689 8.99331 9.2451 9.12094 8.97486 9.22304C8.91796 9.24857 8.84685 9.24857 8.8184 9.29962C9.2451 9.60593 10.1127 9.59317 10.6674 9.29962C11.3644 8.91673 11.7199 8.35516 11.6346 7.64043C11.5777 6.73425 10.9946 6.22373 10.0558 6.03229ZM0 0.965373C0.0995626 0.927084 0.170679 0.939847 0.256018 0.939847C4.19585 0.939847 8.13569 0.939847 12.0755 0.939847C12.2746 0.939847 12.3742 0.990899 12.4738 1.14406C14.5504 4.3731 16.627 7.6149 18.7035 10.8439C18.7604 10.9333 18.8173 11.0226 18.86 11.112C18.7604 11.163 18.6751 11.1503 18.604 11.1503C14.6499 11.1503 10.7101 11.1503 6.75603 11.1503C6.57113 11.1503 6.47157 11.0992 6.37201 10.946C4.29541 7.69148 2.19038 4.42415 0.0995626 1.15682C0.0568929 1.10577 0 1.05471 0 0.965373Z" fill="#E30628"/>
</svg>
