<svg width="37" height="24" viewBox="0 0 37 24" fill="none" xmlns="http://www.w3.org/2000/svg">
<rect x="0.5" width="36" height="24" rx="2" fill="white"/>
<path d="M12.0021 19.9011V18.7686C12.0021 18.3421 11.7302 18.0551 11.2919 18.0512C11.0615 18.0474 10.8238 18.1191 10.6574 18.3723C10.5329 18.1722 10.3367 18.0512 10.0608 18.0512C9.86801 18.0512 9.6796 18.1079 9.53211 18.3192V18.0961H9.13923V19.9007H9.53519V18.9001C9.53519 18.5868 9.70897 18.4204 9.97733 18.4204C10.238 18.4204 10.3699 18.5902 10.3699 18.8961V19.9005H10.7667V18.8999C10.7667 18.5866 10.9479 18.4201 11.2084 18.4201C11.4765 18.4201 11.6044 18.59 11.6044 18.8959V19.9002L12.0021 19.9011ZM17.8709 18.0961H17.229V17.5486H16.8322V18.0961H16.466V18.4548H16.8322V19.278C16.8322 19.6967 16.9947 19.9461 17.4591 19.9461C17.6295 19.9461 17.8257 19.8933 17.9502 19.8066L17.8368 19.4705C17.7196 19.5384 17.5913 19.5726 17.4892 19.5726C17.293 19.5726 17.229 19.4516 17.229 19.2705V18.4551H17.8709V18.0961ZM21.2206 18.0511C20.9942 18.0511 20.8467 18.157 20.7452 18.3156V18.0961H20.3561V19.9007H20.7487V18.8891C20.7487 18.5905 20.877 18.4245 21.1336 18.4245C21.2177 18.4233 21.3011 18.4388 21.3791 18.4699L21.5001 18.1001C21.4132 18.0659 21.2999 18.0508 21.2204 18.0508M16.1556 18.2396C15.9668 18.1151 15.7066 18.0508 15.4195 18.0508C14.9622 18.0508 14.6677 18.2699 14.6677 18.6285C14.6677 18.9227 14.8869 19.1043 15.2906 19.1609L15.476 19.1873C15.6913 19.2175 15.7929 19.2742 15.7929 19.3761C15.7929 19.5156 15.6499 19.5952 15.3814 19.5952C15.1095 19.5952 14.9133 19.5084 14.781 19.4064L14.5966 19.7124C14.8118 19.871 15.0837 19.9466 15.3781 19.9466C15.8995 19.9466 16.2016 19.7012 16.2016 19.3576C16.2016 19.0404 15.9638 18.8745 15.5709 18.8178L15.3859 18.791C15.216 18.769 15.0798 18.7348 15.0798 18.6139C15.0798 18.4819 15.2082 18.4025 15.4236 18.4025C15.654 18.4025 15.877 18.4894 15.9864 18.5572L16.1563 18.24L16.1556 18.2396ZM26.6776 18.0505C26.4512 18.0505 26.3037 18.1564 26.2017 18.3149V18.0961H25.8127V19.9007H26.2057V18.8891C26.2057 18.5905 26.334 18.4245 26.5906 18.4245C26.6747 18.4233 26.7581 18.4388 26.8361 18.4699L26.9571 18.1001C26.8702 18.0659 26.7569 18.0508 26.6774 18.0508M21.6171 18.9982C21.6171 19.5456 21.9984 19.9459 22.5802 19.9459C22.8521 19.9459 23.0332 19.8854 23.2291 19.7307L23.0406 19.4135C22.8932 19.5194 22.7385 19.576 22.5677 19.576C22.2543 19.5721 22.0239 19.3456 22.0239 18.9982C22.0239 18.6507 22.2543 18.4243 22.5677 18.4204C22.738 18.4204 22.8928 18.477 23.0406 18.5829L23.2291 18.2656C23.0329 18.1109 22.8518 18.0505 22.5802 18.0505C21.9984 18.0505 21.6171 18.4506 21.6171 18.9982ZM25.2953 18.9982V18.0961H24.903V18.316C24.7781 18.1535 24.5897 18.0516 24.3328 18.0516C23.8269 18.0516 23.4298 18.4483 23.4298 18.9993C23.4298 19.5503 23.8267 19.947 24.3328 19.947C24.5897 19.947 24.7781 19.8449 24.903 19.6825V19.9017H25.2954V18.9988L25.2953 18.9982ZM23.8339 18.9982C23.8339 18.6809 24.0418 18.4204 24.3816 18.4204C24.7062 18.4204 24.9253 18.6697 24.9253 18.9982C24.9253 19.3266 24.7062 19.576 24.3816 19.576C24.0418 19.576 23.8338 19.3154 23.8338 18.9982M19.0948 18.0506C18.5658 18.0506 18.1957 18.4354 18.1957 18.9983C18.1957 19.5721 18.5806 19.946 19.1211 19.946C19.393 19.946 19.642 19.8781 19.8611 19.6931L19.6687 19.4023C19.5174 19.5232 19.3247 19.5911 19.1435 19.5911C18.8906 19.5911 18.6603 19.4739 18.6036 19.149H19.944C19.9479 19.1002 19.9518 19.051 19.9518 18.9982C19.9479 18.4355 19.5999 18.0505 19.0946 18.0505M19.0869 18.4024C19.3399 18.4024 19.5023 18.561 19.5438 18.8402H18.6071C18.649 18.5796 18.8073 18.4024 19.087 18.4024M28.9404 18.9988V17.3715H28.5475V18.316C28.423 18.1535 28.2342 18.0516 27.9774 18.0516C27.4714 18.0516 27.0744 18.4483 27.0744 18.9993C27.0744 19.5503 27.4712 19.947 27.9774 19.947C28.2342 19.947 28.423 19.8449 28.5475 19.6825V19.9017H28.9404V18.9988ZM27.4785 18.9988C27.4785 18.6816 27.6863 18.421 28.0262 18.421C28.3512 18.421 28.57 18.6704 28.57 18.9988C28.57 19.3273 28.3512 19.5766 28.0262 19.5766C27.6864 19.5766 27.4785 19.3161 27.4785 18.9988ZM14.2149 18.9988V18.0961H13.8224V18.316C13.6979 18.1535 13.509 18.0516 13.2522 18.0516C12.7463 18.0516 12.3492 18.4483 12.3492 18.9993C12.3492 19.5503 12.746 19.947 13.2522 19.947C13.5089 19.947 13.6979 19.8449 13.8224 19.6825V19.9017H14.2145V18.9988H14.2149ZM12.7534 18.9988C12.7534 18.6816 12.9613 18.421 13.301 18.421C13.6257 18.421 13.8448 18.6704 13.8448 18.9988C13.8448 19.3273 13.6257 19.5766 13.301 19.5766C12.9613 19.5766 12.7534 19.3161 12.7534 18.9988ZM29.5946 19.6413C29.643 19.6413 29.6894 19.6602 29.7238 19.6941C29.7405 19.7103 29.7537 19.7297 29.7628 19.7511C29.7818 19.7956 29.7818 19.8458 29.7628 19.8902C29.7535 19.9115 29.7403 19.9309 29.7238 19.9473C29.707 19.9635 29.6873 19.9765 29.6659 19.9858C29.6433 19.9954 29.6191 20.0002 29.5946 20.0001C29.5698 20.0003 29.5453 19.9954 29.5225 19.9858C29.5007 19.9767 29.4809 19.9637 29.4641 19.9473C29.4476 19.9303 29.4346 19.9103 29.4257 19.8884C29.4067 19.844 29.4067 19.7937 29.4257 19.7493C29.4347 19.7279 29.448 19.7085 29.4646 19.6922C29.4813 19.6756 29.5011 19.6625 29.523 19.6537C29.5458 19.6441 29.5704 19.6393 29.5952 19.6394M29.5946 19.9591C29.6132 19.9592 29.6316 19.9555 29.6486 19.9481C29.665 19.941 29.68 19.9309 29.6926 19.9183C29.7053 19.9057 29.7154 19.8907 29.7224 19.8743C29.7368 19.8395 29.7368 19.8003 29.7224 19.7654C29.7153 19.7491 29.7052 19.7341 29.6926 19.7215C29.68 19.7088 29.665 19.6987 29.6486 19.6917C29.6315 19.6846 29.6131 19.6811 29.5946 19.6813C29.5758 19.6811 29.5571 19.6847 29.5396 19.6917C29.5228 19.6986 29.5076 19.7087 29.4946 19.7215C29.4549 19.7622 29.4433 19.8228 29.4653 19.8754C29.472 19.8919 29.482 19.9069 29.4946 19.9194C29.5076 19.9321 29.5228 19.9422 29.5396 19.9492C29.557 19.9566 29.5757 19.9603 29.5946 19.9602M29.6056 19.7352C29.6232 19.7341 29.6406 19.7392 29.6549 19.7495C29.6665 19.759 29.6729 19.7734 29.6722 19.7884C29.6727 19.8013 29.6676 19.8138 29.6583 19.8226C29.6473 19.8322 29.6335 19.8379 29.6189 19.839L29.6739 19.9017H29.6316L29.581 19.8394H29.5646V19.9017H29.5292V19.7353H29.6062L29.6056 19.7352ZM29.5641 19.7663V19.8103H29.6052C29.6129 19.8104 29.6205 19.8085 29.6272 19.8047C29.6326 19.8008 29.6357 19.7945 29.6354 19.7879C29.6357 19.7814 29.6326 19.7752 29.6272 19.7715C29.6205 19.7675 29.6129 19.7656 29.6052 19.7659H29.5641V19.7663Z" fill="#231F20"/>
<path d="M29.3514 13.8985V13.6798H29.4394V13.6353H29.2146V13.6798H29.3026V13.8985H29.351H29.3514ZM29.7875 13.8985V13.6346H29.7188L29.6393 13.8157L29.5602 13.6346H29.4912V13.8985H29.54V13.6997L29.6144 13.8713H29.665L29.7393 13.6993V13.8985H29.7877H29.7875Z" fill="#F79410"/>
<path d="M21.9748 15.0298H16.026V4.3421H21.9749L21.9748 15.0298Z" fill="#FF5F00"/>
<path d="M16.4031 9.6867C16.4031 7.5187 17.4185 5.58744 18.9996 4.34285C17.8028 3.39938 16.3224 2.88732 14.7982 2.88957C11.0436 2.88957 8.00005 5.9327 8.00005 9.6867C8.00005 13.4407 11.0436 16.4838 14.7982 16.4838C16.3225 16.4861 17.8028 15.974 18.9997 15.0305C17.4187 13.7862 16.4031 11.8548 16.4031 9.6867Z" fill="#EB001B"/>
<path d="M30 9.6867C30 13.4407 26.9565 16.4838 23.2018 16.4838C21.6775 16.4861 20.1969 15.974 18.9998 15.0305C20.5814 13.7859 21.5968 11.8548 21.5968 9.6867C21.5968 7.51859 20.5814 5.58744 18.9998 4.34285C20.1969 3.3994 21.6774 2.88736 23.2017 2.88957C26.9564 2.88957 29.9999 5.9327 29.9999 9.6867" fill="#F79E1B"/>
</svg>
