<svg width="37" height="24" viewBox="0 0 37 24" fill="none" xmlns="http://www.w3.org/2000/svg">
<rect x="0.5" width="36" height="24" rx="2" fill="white"/>
<path d="M29.7719 9.11916L28.9637 14.1998C28.9529 14.2702 29.0002 14.3365 29.0706 14.3487C29.0774 14.3501 29.0855 14.3501 29.0923 14.3501H30.0494C30.1198 14.3501 30.1794 14.3 30.1902 14.231L30.9984 9.15029C31.0092 9.0799 30.9618 9.01356 30.8914 9.00138C30.8847 9.00003 30.8766 9.00003 30.8698 9.00003H29.9127C29.8423 8.99867 29.7814 9.04876 29.7719 9.11916ZM28.7498 10.6015H27.8414C27.7724 10.6002 27.7115 10.6516 27.7006 10.7207L27.6708 10.9075C27.6708 10.9075 26.9655 10.1426 25.7174 10.6597C25.0012 10.9562 24.6574 11.5668 24.5112 12.0148C24.5112 12.0148 24.0468 13.3767 25.0974 14.1254C25.0974 14.1254 26.0721 14.8456 27.1686 14.0807L27.1497 14.1998C27.1402 14.258 27.1713 14.3135 27.2241 14.3379C27.2417 14.346 27.2607 14.3501 27.2796 14.3501H28.188C28.2584 14.3514 28.3179 14.3 28.3288 14.231L28.8811 10.7518C28.8879 10.7139 28.8757 10.676 28.8513 10.6462C28.8243 10.6178 28.7877 10.6015 28.7498 10.6015ZM27.4136 12.5252C27.3784 12.7689 27.2552 12.9896 27.0684 13.1493C26.8803 13.309 26.6406 13.3943 26.3943 13.3916C26.2981 13.393 26.2007 13.3781 26.1086 13.3497C25.716 13.2251 25.4926 12.8515 25.5576 12.4453C25.5928 12.2017 25.716 11.981 25.9042 11.8213C26.0924 11.6615 26.332 11.5749 26.5784 11.5776C26.6745 11.5762 26.772 11.5911 26.864 11.6196C27.2566 11.7455 27.4786 12.1191 27.4136 12.5252ZM22.5645 12.6213C23.0572 12.6213 23.5338 12.4467 23.9074 12.1286C24.281 11.8118 24.5274 11.3705 24.6046 10.8872C24.763 9.88132 23.971 9.00273 22.8488 9.00273H21.0401C20.9697 9.00273 20.9102 9.05282 20.8993 9.12187L20.0898 14.2025C20.0803 14.2607 20.1115 14.3162 20.1642 14.3406C20.1818 14.3487 20.2008 14.3528 20.2198 14.3528H21.1769C21.2473 14.3528 21.3068 14.3027 21.3177 14.2337L21.5546 12.7418C21.5654 12.6728 21.625 12.6213 21.6954 12.6227L22.5645 12.6213ZM23.3645 10.8411C23.305 11.2134 23.0153 11.4869 22.4616 11.4869H21.7522L21.9675 10.1331H22.6633C23.2373 10.1345 23.4241 10.4702 23.3645 10.8411Z" fill="#0070E0"/>
<path d="M18.9987 10.6878L17.9035 12.5235L17.3471 10.7014C17.3295 10.6418 17.274 10.6012 17.2117 10.6012H16.2235C16.1707 10.5998 16.1247 10.6391 16.1179 10.6905C16.1152 10.7068 16.1179 10.7244 16.1233 10.7406L17.1197 13.8096L16.2181 15.2554C16.187 15.3041 16.2005 15.3678 16.2492 15.3989C16.2506 15.4003 16.2519 15.4016 16.2546 15.4016C16.2709 15.4111 16.2898 15.4165 16.3088 15.4151H17.3742C17.4365 15.4151 17.4933 15.3827 17.5258 15.3299L20.3078 10.7609C20.3281 10.7284 20.3295 10.6878 20.3105 10.654C20.2916 10.6201 20.255 10.5998 20.2171 10.6012H19.153C19.0881 10.6025 19.0312 10.635 18.9987 10.6878ZM15.663 10.6012H14.7547C14.6843 10.6012 14.6247 10.6513 14.6139 10.7203L14.5841 10.9071C14.5841 10.9071 13.8788 10.1423 12.6293 10.6594C11.9131 10.9559 11.5693 11.5664 11.4231 12.0145C11.4231 12.0145 10.9587 13.3764 12.0079 14.125C12.0079 14.125 12.9826 14.8452 14.0791 14.0803L14.0602 14.1995C14.0507 14.2577 14.0819 14.3132 14.1347 14.3376C14.1522 14.3457 14.1712 14.3497 14.1902 14.3497H15.0985C15.1676 14.3497 15.2285 14.2996 15.2393 14.2306L15.7917 10.7514C15.8011 10.6932 15.77 10.6364 15.7172 10.6134C15.6996 10.6052 15.6806 10.6012 15.663 10.6012ZM14.3255 12.5249C14.2903 12.7672 14.1671 12.9892 13.979 13.1476C13.7908 13.3073 13.5512 13.394 13.3048 13.3913C13.2087 13.3926 13.1126 13.3777 13.0192 13.3493C12.6279 13.2248 12.4032 12.8511 12.4682 12.445C12.5034 12.2013 12.6279 11.9793 12.8161 11.8209C13.0043 11.6612 13.2452 11.5759 13.4916 11.5786C13.5877 11.5772 13.6852 11.5921 13.7773 11.6206C14.1698 11.7451 14.3919 12.1187 14.3255 12.5249ZM9.47636 12.621C9.96778 12.621 10.4429 12.4464 10.8179 12.1269C11.1916 11.8101 11.438 11.3701 11.5138 10.8855C11.6735 9.87962 10.8802 9.00103 9.75795 9.00103H7.94932C7.87893 8.99968 7.81936 9.05112 7.80853 9.12016L7.00169 14.1995C6.99221 14.2577 7.02335 14.3145 7.07615 14.3376C7.09375 14.3457 7.1127 14.3497 7.13165 14.3497H8.08876C8.15915 14.3497 8.21872 14.2996 8.22955 14.2306L8.46646 12.7388C8.47729 12.6697 8.53685 12.6183 8.60725 12.6196L9.47636 12.621ZM10.2778 10.8408C10.2182 11.2131 9.92852 11.4865 9.37483 11.4865H8.66546L8.88071 10.1328H9.57654C10.1505 10.1341 10.3374 10.4699 10.2778 10.8408Z" fill="#003087"/>
</svg>
