<svg width="37" height="24" viewBox="0 0 37 24" fill="none" xmlns="http://www.w3.org/2000/svg">
<rect x="0.5" width="36" height="24" rx="2" fill="white"/>
<path fill-rule="evenodd" clip-rule="evenodd" d="M7.48438 14.5911C7.48438 14.1347 7.24596 14.1647 7.01787 14.1599V14.028C7.21564 14.0376 7.41843 14.0376 7.61672 14.0376C7.82975 14.0376 8.11897 14.028 8.49472 14.028C9.80887 14.028 10.5247 14.9055 10.5247 15.8041C10.5247 16.307 10.2303 17.5703 8.43369 17.5703C8.17509 17.5703 7.93626 17.5603 7.69783 17.5603C7.46964 17.5603 7.24596 17.565 7.01787 17.5703V17.4383C7.32205 17.4076 7.46964 17.3976 7.48438 17.0526V14.5911ZM7.98173 16.9712C7.98173 17.3621 8.26114 17.4076 8.50967 17.4076C9.60617 17.4076 9.96601 16.5806 9.96601 15.8245C9.96601 14.8755 9.35711 14.1905 8.37778 14.1905C8.16927 14.1905 8.07329 14.2054 7.98173 14.2108V16.9712Z" fill="#1A1919"/>
<path fill-rule="evenodd" clip-rule="evenodd" d="M10.7026 17.4382H10.7987C10.9408 17.4382 11.0424 17.4382 11.0424 17.2704V15.8952C11.0424 15.6722 10.9664 15.6414 10.7784 15.5402V15.4592C11.0169 15.3875 11.3013 15.2918 11.3214 15.2765C11.3571 15.2561 11.3871 15.2507 11.413 15.2507C11.4378 15.2507 11.4483 15.2812 11.4483 15.3222V17.2704C11.4483 17.4382 11.5601 17.4382 11.7024 17.4382H11.7883V17.5702C11.6157 17.5702 11.4378 17.5602 11.2557 17.5602C11.073 17.5602 10.8902 17.5649 10.7026 17.5702V17.4382ZM11.2455 14.4694C11.1133 14.4694 10.9968 14.3476 10.9968 14.2157C10.9968 14.0886 11.1188 13.9717 11.2455 13.9717C11.3772 13.9717 11.4942 14.0786 11.4942 14.2157C11.4942 14.353 11.3823 14.4694 11.2455 14.4694Z" fill="#1A1919"/>
<path fill-rule="evenodd" clip-rule="evenodd" d="M12.2704 15.9259C12.2704 15.7385 12.2144 15.6877 11.9763 15.5912V15.4948C12.1941 15.4238 12.402 15.3576 12.6459 15.2508C12.6613 15.2508 12.676 15.261 12.676 15.3016V15.6315C12.9657 15.4238 13.2144 15.2508 13.555 15.2508C13.9857 15.2508 14.1379 15.5656 14.1379 15.9614V17.2705C14.1379 17.4384 14.2499 17.4384 14.3918 17.4384H14.4834V17.5704C14.3052 17.5704 14.1278 17.5604 13.9453 17.5604C13.7625 17.5604 13.5796 17.5651 13.3969 17.5704V17.4384H13.4885C13.6306 17.4384 13.7317 17.4384 13.7317 17.2705V15.9567C13.7317 15.6671 13.555 15.5251 13.2653 15.5251C13.1028 15.5251 12.844 15.6568 12.676 15.769V17.2705C12.676 17.4384 12.7882 17.4384 12.9303 17.4384H13.0215V17.5704C12.844 17.5704 12.6663 17.5604 12.4832 17.5604C12.301 17.5604 12.1181 17.5651 11.9355 17.5704V17.4384H12.0271C12.169 17.4384 12.2704 17.4384 12.2704 17.2705V15.9259Z" fill="#1A1919"/>
<path fill-rule="evenodd" clip-rule="evenodd" d="M14.869 16.1699C14.8587 16.2155 14.8587 16.2915 14.869 16.4642C14.8989 16.9462 15.2092 17.3418 15.6148 17.3418C15.8943 17.3418 16.1126 17.1895 16.3 17.0021L16.3709 17.0732C16.1374 17.3827 15.8482 17.6467 15.4324 17.6467C14.6253 17.6467 14.4629 16.8648 14.4629 16.5402C14.4629 15.5454 15.1326 15.2508 15.4875 15.2508C15.8991 15.2508 16.3409 15.5097 16.3456 16.0478C16.3456 16.0786 16.3456 16.1087 16.3409 16.1392L16.295 16.1699H14.869ZM15.7677 16.0073C15.8943 16.0073 15.9091 15.9412 15.9091 15.8801C15.9091 15.6217 15.7519 15.4136 15.4676 15.4136C15.1583 15.4136 14.945 15.6416 14.8842 16.0073H15.7677Z" fill="#1A1919"/>
<path fill-rule="evenodd" clip-rule="evenodd" d="M16.4627 17.4384H16.5998C16.7414 17.4384 16.843 17.4384 16.843 17.2705V15.8448C16.843 15.6877 16.6554 15.6568 16.5792 15.6162V15.5404C16.9496 15.3829 17.1527 15.2508 17.1991 15.2508C17.2288 15.2508 17.244 15.2661 17.244 15.3171V15.7739H17.2547C17.3812 15.576 17.5947 15.2508 17.9041 15.2508C18.031 15.2508 18.1932 15.337 18.1932 15.5199C18.1932 15.6568 18.0972 15.7792 17.9552 15.7792C17.7973 15.7792 17.7973 15.6568 17.6195 15.6568C17.5334 15.6568 17.2492 15.7739 17.2492 16.0786V17.2705C17.2492 17.4384 17.3506 17.4384 17.4927 17.4384H17.7766V17.5704C17.4975 17.5651 17.2851 17.5604 17.0666 17.5604C16.8585 17.5604 16.6453 17.5651 16.4627 17.5704V17.4384Z" fill="#1A1919"/>
<path fill-rule="evenodd" clip-rule="evenodd" d="M18.4162 16.8646C18.4824 17.1996 18.685 17.4842 19.0561 17.4842C19.3551 17.4842 19.4666 17.3013 19.4666 17.1238C19.4666 16.5246 18.3606 16.7177 18.3606 15.9007C18.3606 15.6162 18.5891 15.2508 19.1474 15.2508C19.3095 15.2508 19.5277 15.2968 19.7254 15.3984L19.7611 15.9156H19.6444C19.5937 15.5961 19.4163 15.4135 19.0912 15.4135C18.8882 15.4135 18.6955 15.53 18.6955 15.7483C18.6955 16.3424 19.8726 16.1594 19.8726 16.9562C19.8726 17.2909 19.6039 17.6466 18.9998 17.6466C18.797 17.6466 18.5581 17.5755 18.381 17.474L18.3249 16.8902L18.4162 16.8646Z" fill="#1A1919"/>
<path fill-rule="evenodd" clip-rule="evenodd" d="M24.4554 14.9464H24.3289C24.2323 14.3532 23.8111 14.1144 23.2431 14.1144C22.6588 14.1144 21.8116 14.5049 21.8116 15.7229C21.8116 16.7484 22.5426 17.4843 23.3239 17.4843C23.8259 17.4843 24.243 17.1391 24.3443 16.6059L24.461 16.6362L24.3443 17.3774C24.1311 17.5095 23.5575 17.6468 23.2222 17.6468C22.0352 17.6468 21.2841 16.8803 21.2841 15.7385C21.2841 14.6979 22.2128 13.9516 23.2075 13.9516C23.6184 13.9516 24.0142 14.084 24.405 14.2211L24.4554 14.9464Z" fill="#1A1919"/>
<path fill-rule="evenodd" clip-rule="evenodd" d="M24.6385 17.4383H24.7346C24.8772 17.4383 24.9784 17.4383 24.9784 17.2704V14.4444C24.9784 14.1142 24.9025 14.1042 24.7094 14.0482V13.9669C24.9123 13.9011 25.1256 13.8099 25.2325 13.7485C25.2875 13.7186 25.3285 13.6926 25.3435 13.6926C25.3745 13.6926 25.3845 13.7235 25.3845 13.7642V17.2704C25.3845 17.4383 25.4963 17.4383 25.6382 17.4383H25.7241V17.5703C25.5521 17.5703 25.3745 17.5603 25.1917 17.5603C25.009 17.5603 24.8265 17.565 24.6385 17.5703V17.4383Z" fill="#1A1919"/>
<path fill-rule="evenodd" clip-rule="evenodd" d="M27.8969 17.2909C27.8969 17.3826 27.9524 17.3874 28.0385 17.3874C28.0997 17.3874 28.1755 17.3826 28.242 17.3826V17.4894C28.0236 17.5095 27.6073 17.6161 27.5107 17.6466L27.4854 17.6311V17.22C27.1812 17.4686 26.9475 17.6466 26.5867 17.6466C26.3127 17.6466 26.0287 17.4686 26.0287 17.0429V15.7433C26.0287 15.6112 26.0085 15.4843 25.7247 15.4592V15.3626C25.9076 15.3576 26.3127 15.3272 26.3789 15.3272C26.4352 15.3272 26.4352 15.3626 26.4352 15.4744V16.7836C26.4352 16.936 26.4352 17.372 26.8766 17.372C27.0489 17.372 27.2773 17.2404 27.4903 17.063V15.6975C27.4903 15.5961 27.2468 15.5403 27.0644 15.4898V15.3985C27.5207 15.3676 27.8052 15.3272 27.856 15.3272C27.8969 15.3272 27.8969 15.3626 27.8969 15.4186V17.2909Z" fill="#1A1919"/>
<path fill-rule="evenodd" clip-rule="evenodd" d="M28.9064 15.6162C29.1093 15.444 29.3834 15.2507 29.6625 15.2507C30.2513 15.2507 30.6066 15.7638 30.6066 16.3169C30.6066 16.9815 30.1192 17.6466 29.3932 17.6466C29.018 17.6466 28.82 17.5244 28.6879 17.4686L28.5361 17.5854L28.4297 17.5298C28.475 17.2304 28.5006 16.936 28.5006 16.6263V14.4444C28.5006 14.1142 28.4242 14.1042 28.2313 14.0482V13.9669C28.4345 13.9011 28.6475 13.8099 28.754 13.7485C28.81 13.7186 28.8505 13.6926 28.8659 13.6926C28.8961 13.6926 28.9064 13.7236 28.9064 13.7642V15.6162ZM28.9064 16.9967C28.9064 17.1894 29.0892 17.5145 29.4291 17.5145C29.972 17.5145 30.2003 16.9815 30.2003 16.5297C30.2003 15.9817 29.7846 15.525 29.3889 15.525C29.2003 15.525 29.0433 15.647 28.9064 15.7639V16.9967Z" fill="#1A1919"/>
<path fill-rule="evenodd" clip-rule="evenodd" d="M9.75158 20.0601L9.75711 20.0546V19.0194C9.75711 18.7928 9.5995 18.7596 9.51671 18.7596H9.45586V18.6768C9.58589 18.6768 9.71289 18.6877 9.84251 18.6877C9.95573 18.6877 10.0694 18.6768 10.1822 18.6768V18.7596H10.1411C10.0248 18.7596 9.89499 18.7817 9.89499 19.1103V20.3667C9.89499 20.4635 9.89773 20.5601 9.91128 20.6458H9.80633L8.38444 19.0604V20.1984C8.38444 20.4389 8.43116 20.5213 8.6438 20.5213H8.69081V20.6043C8.57206 20.6043 8.45344 20.5936 8.3347 20.5936C8.21072 20.5936 8.08351 20.6043 7.95912 20.6043V20.5213H7.9979C8.18838 20.5213 8.24638 20.3915 8.24638 20.1713V19.0078C8.24638 18.8533 8.11895 18.7596 7.99519 18.7596H7.95912V18.6768C8.06386 18.6768 8.17174 18.6877 8.27646 18.6877C8.3596 18.6877 8.43965 18.6768 8.52244 18.6768L9.75158 20.0601Z" fill="#1A1919"/>
<path fill-rule="evenodd" clip-rule="evenodd" d="M9.91126 20.6573L9.79758 20.6534L8.39617 19.0915V20.1983C8.39948 20.4384 8.43596 20.5067 8.64389 20.5093H8.70306V20.616H8.69079C8.57134 20.616 8.45249 20.6049 8.33467 20.6049C8.21104 20.6049 8.08413 20.616 7.95901 20.616H7.94689V20.5093H7.9979C8.18038 20.5082 8.23257 20.3909 8.23455 20.171V19.008C8.23402 18.861 8.1134 18.7715 7.99528 18.7715H7.94689V18.6646H7.95901C8.06458 18.6646 8.17265 18.6753 8.27626 18.6753C8.35864 18.6753 8.43841 18.6645 8.53149 18.6689L9.7451 20.0349V19.0192C9.7437 18.7999 9.59715 18.7733 9.51681 18.7715H9.44374V18.6646H9.45595C9.58639 18.6646 9.71351 18.6753 9.84249 18.6753C9.95489 18.6753 10.0681 18.6646 10.1822 18.6646H10.1944V18.7715H10.1411C10.0271 18.7744 9.91015 18.7845 9.90678 19.1101V20.3666C9.90678 20.4633 9.90981 20.5597 9.92307 20.6434L9.92563 20.6573H9.91126ZM9.80642 20.6332H9.89782C9.88549 20.5501 9.88328 20.4584 9.88328 20.3666V19.1101C9.88328 18.7787 10.0222 18.7475 10.1411 18.7472H10.1702V18.6885C10.0614 18.6893 9.95233 18.6993 9.84249 18.6993C9.71601 18.6993 9.59308 18.6893 9.46829 18.6885L9.468 18.7472H9.51681C9.60169 18.7475 9.76901 18.7852 9.76901 19.0192L9.76535 20.0631L9.75994 20.0685L9.75051 20.0774L8.52242 18.6885C8.44038 18.6885 8.3605 18.6993 8.27626 18.6993C8.17509 18.6993 8.07138 18.6893 7.97124 18.6885L7.97072 18.7472H7.99528C8.12479 18.7475 8.25805 18.8463 8.25805 19.008V20.171C8.25805 20.392 8.1965 20.5331 7.9979 20.5338L7.97124 20.5331V20.5924C8.09082 20.5914 8.21407 20.5813 8.33467 20.5813C8.44987 20.5813 8.56483 20.5914 8.6788 20.5924V20.5338H8.64389C8.42654 20.5331 8.37272 20.4384 8.37255 20.1983V19.0293L9.80642 20.6332ZM9.7451 20.0544V20.0534L9.74289 20.0516L9.7451 20.0544Z" fill="#1A1919"/>
<path fill-rule="evenodd" clip-rule="evenodd" d="M10.5961 18.8146C10.3888 18.8146 10.3807 18.8646 10.3393 19.0659H10.2564C10.2673 18.9886 10.2809 18.9113 10.2896 18.8312C10.3006 18.7536 10.3061 18.6766 10.3061 18.5967H10.3723C10.3946 18.6796 10.4636 18.6766 10.5385 18.6766H11.9628C12.0378 18.6766 12.1067 18.6738 12.1123 18.5909L12.1783 18.6022C12.1676 18.6766 12.1563 18.7512 12.1483 18.8259C12.1428 18.9004 12.1428 18.9748 12.1428 19.0493L12.0598 19.08C12.0542 18.978 12.0405 18.8146 11.8554 18.8146H11.4025V20.2837C11.4025 20.4968 11.4993 20.5212 11.6317 20.5212H11.6843V20.6041C11.5766 20.6041 11.3832 20.5935 11.2344 20.5935C11.0685 20.5935 10.875 20.6041 10.7672 20.6041V20.5212H10.8199C10.9721 20.5212 11.049 20.5076 11.049 20.2895V18.8146H10.5961Z" fill="#1A1919"/>
<path fill-rule="evenodd" clip-rule="evenodd" d="M11.6845 20.616C11.5757 20.616 11.3825 20.6051 11.2343 20.6051C11.0686 20.6051 10.8754 20.616 10.7671 20.616H10.7553V20.5094H10.8199C10.972 20.5058 11.0332 20.5038 11.0366 20.2896V18.8266H10.596V18.8024H11.0605V20.2896C11.0605 20.5113 10.9712 20.5337 10.8199 20.5339H10.779V20.5923C10.8879 20.5915 11.0739 20.5814 11.2343 20.5814C11.378 20.5814 11.5625 20.5915 11.6719 20.5923V20.5339H11.6316C11.498 20.5337 11.3905 20.5009 11.3905 20.2839V18.8024H11.8554C12.0406 18.8031 12.0652 18.9606 12.0709 19.0633L12.1307 19.0413C12.1307 18.9691 12.131 18.8969 12.1359 18.8244C12.1441 18.753 12.1541 18.6828 12.1645 18.6121L12.1225 18.605C12.1097 18.6854 12.0318 18.6897 11.9627 18.6887H10.524C10.459 18.6888 10.3882 18.6857 10.3634 18.6086H10.3178C10.3174 18.6849 10.3121 18.759 10.3017 18.8326C10.2934 18.9085 10.2808 18.9813 10.2708 19.0545H10.3297C10.3659 18.8619 10.3896 18.7997 10.596 18.8024V18.8266C10.3915 18.8307 10.396 18.8648 10.3509 19.0688L10.349 19.0783H10.2425L10.244 19.064C10.2553 18.9869 10.2693 18.9093 10.2773 18.8291C10.2889 18.7525 10.294 18.676 10.294 18.5968V18.5846H10.3818L10.3839 18.5932C10.4024 18.6629 10.4536 18.6634 10.524 18.6646H11.9627C12.0396 18.6634 12.0956 18.6623 12.1003 18.5901L12.1012 18.5771L12.1138 18.5796L12.1919 18.5919L12.1899 18.6041C12.1789 18.6782 12.1681 18.7525 12.1598 18.8266C12.1546 18.9006 12.1546 18.9748 12.1546 19.0494V19.0578L12.1466 19.061L12.0489 19.0968L12.0482 19.0808C12.0406 18.9769 12.03 18.8266 11.8554 18.8266H11.4146V20.2839C11.4173 20.4921 11.4999 20.5067 11.6316 20.5094H11.6962V20.616H11.6845Z" fill="#1A1919"/>
<path fill-rule="evenodd" clip-rule="evenodd" d="M12.2663 20.5213H12.3052C12.4043 20.5213 12.5095 20.5078 12.5095 20.364V18.9173C12.5095 18.7734 12.4043 18.7597 12.3052 18.7597H12.2663V18.6768C12.4342 18.6768 12.7221 18.6877 12.9536 18.6877C13.1859 18.6877 13.4728 18.6768 13.6605 18.6768C13.6557 18.7955 13.6583 18.9782 13.6665 19.0994L13.5832 19.1214C13.57 18.9418 13.5369 18.7986 13.2468 18.7986H12.8634V19.5216H13.1914C13.357 19.5216 13.3931 19.4281 13.4095 19.2788H13.4923C13.4868 19.3867 13.4839 19.4943 13.4839 19.6019C13.4839 19.707 13.4868 19.8119 13.4923 19.9167L13.4095 19.9331C13.3931 19.7677 13.3848 19.66 13.1941 19.66H12.8634V20.3031C12.8634 20.4829 13.0229 20.4829 13.1997 20.4829C13.5312 20.4829 13.6774 20.4606 13.7603 20.1462L13.8374 20.1652C13.8015 20.3119 13.7686 20.4578 13.7438 20.6043C13.5668 20.6043 13.2493 20.5937 13.0013 20.5937C12.7522 20.5937 12.4239 20.6043 12.2663 20.6043V20.5213Z" fill="#1A1919"/>
<path fill-rule="evenodd" clip-rule="evenodd" d="M13.7437 20.616C13.5666 20.616 13.2488 20.6045 13.0011 20.6045C12.7523 20.6045 12.4241 20.616 12.2663 20.616H12.2548V20.5093H12.3053C12.4052 20.5076 12.4961 20.4988 12.4974 20.3638V18.9172C12.4961 18.7822 12.4052 18.7733 12.3053 18.7715H12.2548V18.6646H12.2663C12.4351 18.6646 12.7223 18.6753 12.9537 18.6753C13.1859 18.6753 13.4726 18.6646 13.6607 18.6646H13.6729L13.6725 18.6773C13.6707 18.7186 13.6696 18.7677 13.6696 18.8197C13.6696 18.9151 13.6725 19.0197 13.6779 19.0983L13.6784 19.1082L13.6691 19.111L13.572 19.1364L13.5716 19.1222C13.5553 18.943 13.5313 18.8127 13.2469 18.8099H12.8747L12.8745 19.5094H13.1914C13.3506 19.5077 13.3791 19.4263 13.3979 19.2774L13.3985 19.2663H13.5047L13.5045 19.279C13.4991 19.3868 13.4959 19.4942 13.4959 19.6018C13.4959 19.7062 13.4991 19.811 13.5045 19.916L13.5047 19.926L13.4947 19.9283L13.3985 19.9474L13.3979 19.9345C13.3787 19.7659 13.3775 19.6734 13.1942 19.6715H12.8747V20.3029C12.8751 20.4708 13.0198 20.4698 13.1998 20.4708C13.5323 20.4688 13.6655 20.4525 13.7487 20.1428L13.7515 20.1316L13.7631 20.1335L13.8516 20.1565L13.8491 20.1679C13.8133 20.314 13.7803 20.46 13.7554 20.6061L13.7533 20.616H13.7437ZM13.7335 20.5921C13.7576 20.4525 13.7891 20.313 13.823 20.1741L13.7686 20.1603C13.686 20.4692 13.5257 20.4968 13.1998 20.4947C13.0257 20.4947 12.8518 20.4947 12.8509 20.3029V19.6478H13.1942C13.3871 19.6459 13.4065 19.7621 13.4203 19.9192L13.4799 19.907C13.4746 19.8051 13.4719 19.7029 13.4719 19.6018C13.4719 19.4981 13.4746 19.3946 13.4799 19.2904H13.4203C13.4048 19.4346 13.3597 19.5353 13.1914 19.5335H12.8509V18.786H13.2469C13.5341 18.7837 13.5816 18.9323 13.5942 19.1061L13.6537 19.0899C13.6488 19.012 13.6456 18.9119 13.6456 18.8197C13.6456 18.7724 13.6469 18.7276 13.6484 18.6885C13.4608 18.6893 13.1807 18.6993 12.9537 18.6993C12.7268 18.6993 12.4475 18.6893 12.2785 18.6885V18.7472H12.3053C12.4035 18.7475 12.521 18.7645 12.5216 18.9172V20.3638C12.521 20.5163 12.4035 20.5331 12.3053 20.5338H12.2785V20.5921C12.4392 20.5916 12.7585 20.5813 13.0011 20.5813C13.2448 20.5813 13.5555 20.5916 13.7335 20.5921Z" fill="#1A1919"/>
<path fill-rule="evenodd" clip-rule="evenodd" d="M14.2103 18.9692C14.2103 18.7679 14.0997 18.7596 14.014 18.7596H13.9642V18.6768C14.0526 18.6768 14.2238 18.6877 14.3924 18.6877C14.5578 18.6877 14.6905 18.6768 14.8368 18.6768C15.1843 18.6768 15.4943 18.7705 15.4943 19.1629C15.4943 19.4113 15.3284 19.5629 15.1104 19.649L15.5823 20.3556C15.6599 20.4724 15.7147 20.5051 15.8504 20.5213V20.6043C15.759 20.6043 15.6707 20.5937 15.5798 20.5937C15.4943 20.5937 15.4055 20.6043 15.3203 20.6043C15.1075 20.3255 14.9251 20.0274 14.7457 19.7094H14.5637V20.3007C14.5637 20.5133 14.6629 20.5213 14.7895 20.5213H14.8396V20.6043C14.6818 20.6043 14.5223 20.5937 14.3646 20.5937C14.2321 20.5937 14.1022 20.6043 13.9642 20.6043V20.5213H14.014C14.1165 20.5213 14.2103 20.4746 14.2103 20.3726V18.9692ZM14.5637 19.6098H14.6987C14.9751 19.6098 15.124 19.5051 15.124 19.1791C15.124 18.9336 14.9666 18.7761 14.7205 18.7761C14.6376 18.7761 14.6023 18.7846 14.5637 18.7873V19.6098Z" fill="#1A1919"/>
<path fill-rule="evenodd" clip-rule="evenodd" d="M15.8504 20.616C15.7577 20.616 15.6699 20.6049 15.5791 20.6049C15.4949 20.6049 15.4066 20.616 15.3105 20.6114C15.0986 20.3334 14.917 20.0369 14.7387 19.7217H14.5755V20.3C14.5786 20.5079 14.6619 20.5063 14.7895 20.5093H14.8515V20.616H14.8393C14.6814 20.616 14.521 20.6049 14.3645 20.6049C14.2326 20.6049 14.1028 20.616 13.9641 20.616H13.9522V20.5093H14.014C14.1133 20.5085 14.1973 20.4652 14.1977 20.3724V18.9691C14.1956 18.7733 14.0998 18.7742 14.014 18.7715H13.9522V18.6646H13.9641C14.0535 18.6646 14.224 18.6753 14.3924 18.6753C14.5573 18.6753 14.6897 18.6646 14.8369 18.6646C15.185 18.6653 15.5054 18.7611 15.5062 19.1623C15.5062 19.4115 15.3415 19.5673 15.1286 19.6541L15.5923 20.3488C15.6695 20.4634 15.7176 20.492 15.8519 20.5093L15.862 20.5109V20.616H15.8504ZM14.5636 19.6973H14.7523L14.7557 19.7034C14.9355 20.0207 15.117 20.3189 15.3203 20.5924C15.4044 20.5924 15.4931 20.5813 15.5791 20.5813C15.6672 20.5813 15.7525 20.5909 15.8383 20.5921V20.5315C15.7088 20.5157 15.648 20.4766 15.5726 20.3622L15.0919 19.6433L15.1055 19.6378C15.3217 19.5526 15.482 19.4051 15.4821 19.1623C15.482 18.7792 15.184 18.6904 14.8369 18.6885C14.6914 18.6885 14.5587 18.6997 14.3924 18.6997C14.2302 18.6997 14.0663 18.6893 13.9759 18.6885V18.7472H14.014C14.0998 18.7475 14.2217 18.7617 14.2217 18.9691V20.3724C14.2217 20.4832 14.1179 20.5336 14.014 20.5338H13.9759V20.5921C14.1087 20.5916 14.2348 20.5813 14.3645 20.5813C14.5187 20.5813 14.6746 20.5916 14.8273 20.5921V20.5338H14.7895C14.6637 20.5336 14.5514 20.518 14.5514 20.3V19.6973H14.5636ZM14.5636 19.6215H14.5514V18.776L14.5619 18.7751C14.5998 18.7721 14.637 18.7645 14.7205 18.7645C14.972 18.7645 15.1358 18.9279 15.136 19.1797C15.1353 19.5094 14.9773 19.6214 14.6986 19.6215H14.5636ZM14.6986 19.598C14.972 19.5953 15.1098 19.5005 15.1125 19.1797C15.1108 18.9384 14.961 18.7887 14.7205 18.7877C14.646 18.7877 14.6107 18.7946 14.5755 18.798V19.598H14.6986Z" fill="#1A1919"/>
<path fill-rule="evenodd" clip-rule="evenodd" d="M17.7252 20.0601L17.7301 20.0546V19.0194C17.7301 18.7928 17.5732 18.7596 17.4903 18.7596H17.4297V18.6768C17.5595 18.6768 17.6861 18.6877 17.8163 18.6877C17.9298 18.6877 18.0421 18.6768 18.1562 18.6768V18.7596H18.1146C17.9986 18.7596 17.8689 18.7817 17.8689 19.1103V20.3667C17.8689 20.4635 17.8716 20.5601 17.8852 20.6458H17.7806L16.3586 19.0604V20.1984C16.3586 20.4389 16.4053 20.5213 16.6179 20.5213H16.6649V20.6043C16.5462 20.6043 16.4273 20.5936 16.3086 20.5936C16.184 20.5936 16.0572 20.6043 15.933 20.6043V20.5213H15.9714C16.162 20.5213 16.2203 20.3915 16.2203 20.1713V19.0078C16.2203 18.8533 16.0931 18.7596 15.9689 18.7596H15.933V18.6768C16.0375 18.6768 16.146 18.6877 16.2508 18.6877C16.3328 18.6877 16.4133 18.6768 16.4963 18.6768L17.7252 20.0601Z" fill="#1A1919"/>
<path fill-rule="evenodd" clip-rule="evenodd" d="M17.8852 20.6573L17.7718 20.6534L16.3702 19.0916V20.1982C16.3734 20.4387 16.4098 20.5067 16.618 20.5093H16.6765V20.616H16.6646C16.5452 20.616 16.4267 20.6045 16.3083 20.6045C16.1851 20.6045 16.0575 20.616 15.9331 20.616H15.9207V20.5093H15.9715C16.1539 20.5085 16.2062 20.3909 16.208 20.1704V19.0076C16.2076 18.8604 16.0873 18.7715 15.9691 18.7715H15.9207V18.6646H15.9331C16.0385 18.6646 16.1466 18.6753 16.2509 18.6753C16.332 18.6753 16.4119 18.6646 16.5045 18.6681L17.7185 20.0349V19.0192C17.7178 18.7999 17.5707 18.7728 17.4904 18.7715H17.4176V18.6646H17.4296C17.56 18.6646 17.6873 18.6753 17.8164 18.6753C17.9289 18.6753 18.042 18.6646 18.1559 18.6646H18.1681V18.7715H18.1148C18.0008 18.7742 17.8835 18.7845 17.8807 19.1101V20.3666C17.8807 20.4633 17.8831 20.559 17.8973 20.6437L17.8986 20.6573H17.8852ZM17.7807 20.6332H17.8712C17.8591 20.5506 17.8567 20.4584 17.8567 20.3666V19.1101C17.8569 18.7787 17.9966 18.748 18.1148 18.7472H18.1438V18.6885C18.0351 18.6893 17.926 18.6993 17.8164 18.6993C17.6896 18.6993 17.5665 18.6893 17.4416 18.6885V18.7472H17.4904C17.5755 18.748 17.7427 18.7852 17.7427 19.0192L17.7388 20.0631L17.7338 20.0685L17.7251 20.0775L16.4965 18.6885C16.4143 18.6885 16.3342 18.6993 16.2509 18.6993C16.1484 18.6993 16.0452 18.6893 15.9449 18.6885V18.7472H15.9691C16.0991 18.748 16.2319 18.8459 16.2319 19.0076V20.1704C16.2319 20.392 16.1695 20.5331 15.9715 20.5338L15.9449 20.5336V20.5922C16.0642 20.5914 16.1871 20.5813 16.3083 20.5813C16.4241 20.5813 16.5389 20.5914 16.653 20.5922V20.5338H16.618C16.4007 20.5336 16.3466 20.4387 16.3459 20.1982V19.0298L17.7807 20.6332ZM17.7185 20.0544V20.0537L17.7165 20.0516L17.7185 20.0544Z" fill="#1A1919"/>
<path fill-rule="evenodd" clip-rule="evenodd" d="M18.6 20.2095C18.5722 20.3031 18.5388 20.3756 18.5388 20.4247C18.5388 20.5077 18.6552 20.5214 18.746 20.5214H18.7769V20.6043C18.666 20.5984 18.5533 20.5937 18.4421 20.5937C18.3427 20.5937 18.2439 20.5984 18.1442 20.6043V20.5214H18.161C18.2684 20.5214 18.3599 20.4578 18.4008 20.3418L18.8427 19.0747C18.8788 18.9722 18.9285 18.8342 18.9453 18.7318C19.0331 18.7016 19.1441 18.6467 19.1963 18.6132C19.2049 18.6104 19.21 18.6075 19.2184 18.6075C19.2267 18.6075 19.2319 18.6075 19.2379 18.6162C19.2461 18.6381 19.2541 18.663 19.2627 18.685L19.771 20.1295C19.8042 20.2258 19.837 20.328 19.8723 20.4113C19.906 20.4887 19.964 20.5214 20.0554 20.5214H20.072V20.6043C19.9476 20.5984 19.823 20.5937 19.6911 20.5937C19.5557 20.5937 19.4172 20.5984 19.2764 20.6043V20.5214H19.3068C19.3699 20.5214 19.4783 20.5105 19.4783 20.4414C19.4783 20.4057 19.4534 20.3311 19.4225 20.2423L19.3149 19.9222H18.6882L18.6 20.2095ZM19.0032 18.9861H18.9974L18.7408 19.7677H19.2567L19.0032 18.9861Z" fill="#1A1919"/>
<path fill-rule="evenodd" clip-rule="evenodd" d="M20.0713 20.616C19.9472 20.6107 19.8227 20.6045 19.6912 20.6045C19.5558 20.6045 19.4181 20.6107 19.2772 20.616L19.2644 20.6166V20.5088H19.307C19.371 20.5088 19.4658 20.4945 19.4661 20.4412C19.4667 20.4098 19.4419 20.3341 19.4115 20.2463L19.3064 19.9339H18.6972L18.6114 20.2129C18.5836 20.3068 18.55 20.3798 18.5505 20.4247C18.5514 20.4921 18.6545 20.5088 18.7462 20.5088H18.7886V20.6166L18.7761 20.616C18.6657 20.6107 18.553 20.6045 18.4425 20.6045C18.344 20.6045 18.2441 20.6107 18.1452 20.616L18.1324 20.6166V20.5088H18.1611C18.2637 20.5085 18.3494 20.4499 18.3893 20.3377L18.8316 19.0703C18.8672 18.968 18.9174 18.8307 18.9412 18.7203C19.0279 18.6909 19.139 18.6352 19.192 18.6019C19.1997 18.5991 19.2074 18.5956 19.2185 18.5956C19.2252 18.5952 19.2401 18.597 19.2491 18.6114C19.2569 18.6341 19.2657 18.6588 19.274 18.6811L19.7825 20.1254C19.815 20.2221 19.848 20.3241 19.8842 20.4059C19.9161 20.4795 19.9669 20.5085 20.0556 20.5088H20.0835V20.6166L20.0713 20.616ZM19.2886 20.5915C19.4252 20.5866 19.5593 20.5813 19.6912 20.5813C19.8193 20.5813 19.9397 20.5866 20.0597 20.5915V20.5336H20.0556C19.9609 20.5343 19.8958 20.4971 19.8619 20.4156C19.826 20.3322 19.7924 20.2297 19.7598 20.133L19.2514 18.6886C19.243 18.6665 19.2352 18.6419 19.2279 18.6223C19.2252 18.6195 19.2259 18.6195 19.2236 18.6195H19.2185C19.2129 18.6195 19.2096 18.6212 19.2025 18.623C19.1494 18.6575 19.0386 18.7119 18.9565 18.7335C18.9397 18.8381 18.8899 18.9761 18.854 19.0784L18.4122 20.3456C18.3702 20.4656 18.2731 20.5339 18.1611 20.5336H18.1564V20.5915C18.2511 20.5866 18.3467 20.5813 18.4425 20.5813C18.5494 20.5813 18.6583 20.5866 18.764 20.5915V20.5336H18.7462C18.656 20.5324 18.5303 20.5226 18.5272 20.4247C18.5274 20.37 18.5613 20.2993 18.5883 20.206L18.6793 19.9105H19.3232L19.4338 20.2385C19.4648 20.3273 19.4899 20.4009 19.4899 20.4412C19.4858 20.5258 19.3696 20.5321 19.307 20.5336H19.2886V20.5915ZM18.7241 19.7795L18.9885 18.9738H19.0033H19.0116L19.274 19.7795H18.7241ZM18.7572 19.7553H19.2406L19.0003 19.0154L18.7572 19.7553Z" fill="#1A1919"/>
<path fill-rule="evenodd" clip-rule="evenodd" d="M20.1936 18.8146C19.9865 18.8146 19.9782 18.8646 19.9366 19.0659H19.8535C19.8644 18.9886 19.8786 18.9113 19.8871 18.8312C19.8979 18.7536 19.9032 18.6766 19.9032 18.5967H19.97C19.9917 18.6796 20.0608 18.6766 20.1354 18.6766H21.5605C21.6347 18.6766 21.7037 18.6738 21.7092 18.5909L21.7752 18.6022C21.765 18.6766 21.754 18.7512 21.7453 18.8259C21.7392 18.9004 21.7392 18.9748 21.7392 19.0493L21.6567 19.08C21.6519 18.978 21.6379 18.8146 21.4525 18.8146H20.9997V20.2837C20.9997 20.4968 21.0965 20.5212 21.2288 20.5212H21.2816V20.6041C21.1737 20.6041 20.9808 20.5935 20.8313 20.5935C20.666 20.5935 20.4722 20.6041 20.3645 20.6041V20.5212H20.4171C20.5693 20.5212 20.6463 20.5076 20.6463 20.2895V18.8146H20.1936Z" fill="#1A1919"/>
<path fill-rule="evenodd" clip-rule="evenodd" d="M21.2817 20.616C21.1732 20.616 20.9796 20.6051 20.8312 20.6051C20.6662 20.6051 20.4729 20.616 20.3646 20.616H20.3524V20.5094H20.4171C20.5694 20.5058 20.6305 20.5038 20.6341 20.2896L20.634 18.8266H20.1937V18.8024H20.6583V20.2896C20.6583 20.5113 20.5688 20.5332 20.4171 20.5337H20.3765V20.5924C20.4856 20.5915 20.6711 20.5814 20.8312 20.5814C20.9755 20.5814 21.1604 20.5915 21.2693 20.5924V20.5337H21.2288C21.0957 20.5332 20.9881 20.5012 20.988 20.2839V18.8024H21.4526C21.6381 18.8031 21.6623 18.9606 21.6676 19.0633L21.7276 19.0413C21.7276 18.9691 21.728 18.8969 21.7337 18.8247C21.7411 18.7535 21.7516 18.6828 21.7616 18.6124L21.7199 18.605C21.7072 18.6854 21.6292 18.6899 21.5606 18.6887H20.1213C20.0562 18.6894 19.9857 18.6857 19.9607 18.6084H19.9155C19.9149 18.6848 19.9095 18.759 19.8986 18.8326C19.8911 18.9088 19.8777 18.9819 19.8672 19.0545H19.9266C19.9629 18.8619 19.9868 18.7994 20.1937 18.8024V18.8266C19.9889 18.8301 19.9934 18.8648 19.9483 19.0688L19.9463 19.0783H19.8397L19.8414 19.0646C19.853 18.9869 19.8666 18.9093 19.8747 18.8298C19.886 18.7525 19.8911 18.676 19.8911 18.5968V18.5846H19.9787L19.9811 18.5932C20.0004 18.6629 20.0507 18.6634 20.1213 18.6646H21.5606C21.637 18.6634 21.6927 18.6623 21.6976 18.5903L21.698 18.5771L21.7109 18.5796L21.7893 18.5919L21.7874 18.6041C21.776 18.6782 21.7655 18.7525 21.7572 18.8266C21.7516 18.9006 21.7516 18.9749 21.7516 19.0494V19.0578L21.7435 19.061L21.6457 19.0968L21.6453 19.0808C21.6381 18.9769 21.6271 18.8266 21.4526 18.8266H21.0117V20.2839C21.0145 20.4921 21.0972 20.5067 21.2288 20.5094H21.2932V20.616H21.2817Z" fill="#1A1919"/>
<path fill-rule="evenodd" clip-rule="evenodd" d="M21.8773 20.5213H21.916C22.0155 20.5213 22.12 20.5078 22.12 20.364V18.9173C22.12 18.7734 22.0155 18.7597 21.916 18.7597H21.8773V18.6768C21.9851 18.6768 22.1505 18.6877 22.2856 18.6877C22.424 18.6877 22.5898 18.6768 22.7198 18.6768V18.7597H22.681C22.5812 18.7597 22.4763 18.7734 22.4763 18.9173V20.364C22.4763 20.5078 22.5812 20.5213 22.681 20.5213H22.7198V20.6043C22.5871 20.6043 22.4213 20.5937 22.2834 20.5937C22.1478 20.5937 21.9851 20.6043 21.8773 20.6043V20.5213Z" fill="#1A1919"/>
<path fill-rule="evenodd" clip-rule="evenodd" d="M22.7197 20.616C22.5861 20.616 22.421 20.6045 22.2833 20.6045C22.1481 20.6045 21.985 20.616 21.8771 20.616H21.8653V20.5093H21.9159C22.0154 20.5076 22.1072 20.4988 22.1078 20.3638V18.9172C22.1072 18.7822 22.0154 18.7733 21.9159 18.7715H21.8653V18.6646H21.8771C21.985 18.6646 22.1511 18.6753 22.2854 18.6753C22.4231 18.6753 22.5888 18.6646 22.7197 18.6646H22.7311V18.7715H22.681C22.5799 18.7733 22.489 18.7822 22.4881 18.9172V20.3638C22.489 20.4988 22.5799 20.5076 22.681 20.5093H22.7311V20.616H22.7197ZM22.7071 20.5921V20.5336H22.681C22.5819 20.5336 22.4647 20.5163 22.4647 20.3638V18.9172C22.4647 18.7645 22.5819 18.7475 22.681 18.7472H22.7071V18.6885C22.5798 18.6893 22.4199 18.6993 22.2854 18.6993C22.1543 18.6993 21.9963 18.6893 21.8892 18.6885V18.7472H21.9159C22.0139 18.7475 22.1316 18.7645 22.132 18.9172V20.3638C22.1316 20.5163 22.0139 20.5336 21.9159 20.5336H21.8892V20.5921C21.9956 20.5909 22.1517 20.5813 22.2833 20.5813C22.4171 20.5813 22.5768 20.5914 22.7071 20.5921Z" fill="#1A1919"/>
<path fill-rule="evenodd" clip-rule="evenodd" d="M23.8211 18.6352C24.4098 18.6352 24.879 19.0001 24.879 19.5883C24.879 20.2235 24.4232 20.6457 23.8352 20.6457C23.2496 20.6457 22.8024 20.248 22.8024 19.6542C22.8024 19.0801 23.2469 18.6352 23.8211 18.6352ZM23.8628 20.5241C24.3986 20.5241 24.4921 20.0516 24.4921 19.6489C24.4921 19.2453 24.2745 18.7568 23.8158 18.7568C23.3327 18.7568 23.1889 19.1876 23.1889 19.5574C23.1889 20.0516 23.4155 20.5241 23.8628 20.5241Z" fill="#1A1919"/>
<path fill-rule="evenodd" clip-rule="evenodd" d="M22.7899 19.6542C22.7911 19.0734 23.2406 18.6242 23.8207 18.6232V18.6474C23.2531 18.6474 22.814 19.0862 22.8133 19.6542C22.8145 20.2413 23.2552 20.6331 23.8352 20.6332C24.4172 20.6331 24.8664 20.2169 24.8671 19.5879C24.8666 19.007 24.4047 18.6479 23.8207 18.6474V18.6232C24.4136 18.6238 24.8896 18.9923 24.8906 19.5879C24.89 20.2297 24.4288 20.6563 23.8352 20.6573C23.2445 20.6563 22.7911 20.2546 22.7899 19.6542ZM23.1767 19.5573C23.1775 19.1858 23.3225 18.7445 23.8156 18.7445C24.2845 18.7455 24.5031 19.2432 24.5041 19.6489C24.5031 20.0516 24.4084 20.5355 23.8627 20.5355V20.512C24.3878 20.5116 24.479 20.0516 24.4798 19.6489C24.4798 19.2489 24.2644 18.7695 23.8156 18.7688C23.3418 18.7693 23.2018 19.1895 23.2006 19.5573C23.2008 20.0492 23.4254 20.5113 23.8627 20.512V20.5355C23.4044 20.535 23.1775 20.0545 23.1767 19.5573Z" fill="#1A1919"/>
<path fill-rule="evenodd" clip-rule="evenodd" d="M26.7396 20.0601L26.7453 20.0546V19.0194C26.7453 18.7928 26.5874 18.7596 26.5046 18.7596H26.4445V18.6768C26.5739 18.6768 26.7012 18.6877 26.8306 18.6877C26.9441 18.6877 27.0574 18.6768 27.1707 18.6768V18.7596H27.1292C27.0134 18.7596 26.8831 18.7817 26.8831 19.1103V20.3667C26.8831 20.4635 26.886 20.5601 26.9 20.6458H26.795L25.3726 19.0604V20.1984C25.3726 20.4389 25.4197 20.5213 25.6319 20.5213H25.6793V20.6043C25.5604 20.6043 25.4419 20.5936 25.3232 20.5936C25.1987 20.5936 25.0717 20.6043 24.9473 20.6043V20.5213H24.9861C25.177 20.5213 25.2346 20.3915 25.2346 20.1713V19.0078C25.2346 18.8533 25.108 18.7596 24.9831 18.7596H24.9473V18.6768C25.0523 18.6768 25.1599 18.6877 25.265 18.6877C25.3477 18.6877 25.4274 18.6768 25.5106 18.6768L26.7396 20.0601Z" fill="#1A1919"/>
<path fill-rule="evenodd" clip-rule="evenodd" d="M26.9004 20.6573L26.7862 20.6534L25.3848 19.0916V20.1983C25.388 20.4387 25.4245 20.5063 25.6318 20.5088H25.6914V20.616H25.6796C25.5601 20.616 25.4415 20.6049 25.3234 20.6049C25.1996 20.6049 25.0725 20.616 24.9473 20.616H24.936V20.5088H24.9863C25.1683 20.5082 25.2208 20.3909 25.223 20.171V19.0076C25.2229 18.8604 25.1021 18.7715 24.9835 18.7715H24.936V18.6646H24.9473C25.0532 18.6646 25.1609 18.6753 25.2652 18.6753C25.3471 18.6753 25.4265 18.6645 25.5201 18.6689L26.7335 20.0349V19.0192C26.7325 18.7999 26.5855 18.7733 26.5049 18.7715H26.4322V18.6646H26.4448C26.5745 18.6646 26.7019 18.6753 26.8306 18.6753C26.9436 18.6753 27.0563 18.6646 27.171 18.6646H27.1827V18.7715H27.1293C27.0155 18.7744 26.898 18.7849 26.8957 19.1101V20.3666C26.8957 20.4633 26.8979 20.5597 26.9113 20.6437L26.9137 20.6573H26.9004ZM26.7952 20.6332H26.8858C26.8741 20.5501 26.8713 20.4584 26.8713 20.3666V19.1101C26.8713 18.7782 27.0108 18.748 27.1293 18.7472H27.1592V18.6885C27.0496 18.6893 26.941 18.6993 26.8306 18.6993C26.7048 18.6993 26.5814 18.6893 26.4564 18.6885V18.7472H26.5049C26.5902 18.748 26.7569 18.7857 26.7569 19.0192L26.754 20.0631L26.7486 20.0685L26.7399 20.0775L25.511 18.6885C25.4292 18.6885 25.3488 18.6993 25.2652 18.6993C25.1634 18.6993 25.0597 18.6893 24.9592 18.6885V18.7472H24.9835C25.1133 18.748 25.2467 18.8459 25.2467 19.0076V20.171C25.2467 20.392 25.185 20.5331 24.9863 20.5338L24.9592 20.5336V20.5922C25.0791 20.5914 25.202 20.5813 25.3234 20.5813C25.4386 20.5813 25.5531 20.5914 25.6675 20.5922V20.5338H25.6318C25.4152 20.5336 25.3609 20.4387 25.3609 20.1983V19.0293L26.7952 20.6332ZM26.7335 20.0544V20.0537L26.7313 20.0516L26.7335 20.0544Z" fill="#1A1919"/>
<path fill-rule="evenodd" clip-rule="evenodd" d="M27.6143 20.2095C27.5873 20.3031 27.5539 20.3756 27.5539 20.4247C27.5539 20.5077 27.6702 20.5214 27.7608 20.5214H27.7916V20.6043C27.681 20.5984 27.5677 20.5937 27.4571 20.5937C27.3577 20.5937 27.2585 20.5984 27.1594 20.6043V20.5214H27.1751C27.2834 20.5214 27.3749 20.4578 27.4152 20.3418L27.858 19.0747C27.8937 18.9722 27.9436 18.8342 27.9595 18.7318C28.0482 18.7016 28.1584 18.6467 28.2116 18.6132C28.2193 18.6104 28.2249 18.6075 28.2335 18.6075C28.2415 18.6075 28.2467 18.6075 28.2524 18.6162C28.2608 18.6381 28.269 18.663 28.2773 18.685L28.7855 20.1295C28.8184 20.2258 28.8517 20.328 28.8878 20.4113C28.921 20.4887 28.9789 20.5214 29.0699 20.5214H29.087V20.6043C28.9625 20.5984 28.8381 20.5937 28.7054 20.5937C28.5704 20.5937 28.4321 20.5984 28.2911 20.6043V20.5214H28.3217C28.3848 20.5214 28.4931 20.5105 28.4931 20.4414C28.4931 20.4057 28.4683 20.3311 28.4375 20.2423L28.3298 19.9222H27.7031L27.6143 20.2095ZM28.0182 18.9861H28.0126L27.7551 19.7677H28.2723L28.0182 18.9861Z" fill="#1A1919"/>
<path fill-rule="evenodd" clip-rule="evenodd" d="M29.0854 20.6158C28.961 20.6109 28.837 20.6047 28.7053 20.6047C28.5705 20.6047 28.4321 20.6109 28.2915 20.6158L28.2792 20.6165V20.5091H28.3212C28.3854 20.5091 28.4805 20.4942 28.4807 20.4411C28.4814 20.4096 28.4564 20.3342 28.4253 20.2461L28.3206 19.9337H27.711L27.6257 20.2128C27.5979 20.3074 27.5653 20.3796 27.5656 20.4243C27.5656 20.492 27.6692 20.5091 27.7605 20.5091H27.8027V20.6165L27.7903 20.6158C27.6799 20.6109 27.5668 20.6047 27.4569 20.6047C27.3579 20.6047 27.2588 20.6109 27.1592 20.6158L27.1472 20.6165V20.5091H27.1749C27.2779 20.5086 27.364 20.4496 27.4044 20.3376L27.846 19.0701C27.8815 18.9679 27.9313 18.8305 27.9556 18.7205C28.0423 18.6904 28.1533 18.635 28.207 18.6017C28.2141 18.5989 28.2218 18.5956 28.2331 18.5956C28.2403 18.595 28.2547 18.5967 28.2632 18.6118C28.2716 18.6336 28.2798 18.6586 28.2887 18.6809L28.7965 20.1251C28.8298 20.2218 28.8627 20.3239 28.8986 20.4063C28.9311 20.4793 28.9811 20.5084 29.0694 20.5091H29.0979V20.6165L29.0854 20.6158ZM28.3026 20.5915C28.4392 20.5865 28.5736 20.5811 28.7053 20.5811C28.8336 20.5811 28.9538 20.5864 29.0743 20.5913L29.074 20.5334H29.0694C28.9758 20.5337 28.9107 20.4969 28.8762 20.4155C28.8398 20.332 28.807 20.2295 28.7739 20.1331L28.2657 18.6884C28.2576 18.6664 28.2488 18.6417 28.2424 18.6226C28.24 18.6194 28.2403 18.6194 28.2386 18.6194H28.2331C28.2272 18.6194 28.2241 18.6212 28.2176 18.6231C28.1635 18.6569 28.053 18.7123 27.9715 18.7333C27.9544 18.8379 27.9042 18.9757 27.8686 19.0782L27.4264 20.3454C27.3843 20.4654 27.2879 20.5337 27.1749 20.5334H27.1708V20.5913C27.2659 20.5864 27.3608 20.5811 27.4569 20.5811C27.5638 20.5811 27.6731 20.5864 27.7791 20.5913V20.5334H27.7605C27.6707 20.5322 27.5448 20.5227 27.5412 20.4243C27.542 20.3698 27.576 20.2993 27.603 20.2058L27.6938 19.9104H28.3375L28.4485 20.2382C28.4789 20.3271 28.504 20.4007 28.504 20.4411C28.5001 20.5256 28.384 20.5319 28.3212 20.5334H28.3026V20.5915ZM27.7384 19.7792L28.0036 18.9736H28.0179H28.0263L28.2874 19.7792H27.7384ZM27.7717 19.7551H28.2549L28.0146 19.0156L27.7717 19.7551Z" fill="#1A1919"/>
<path fill-rule="evenodd" clip-rule="evenodd" d="M29.7824 20.3335C29.7824 20.4445 29.8592 20.4772 29.9478 20.4887C30.0608 20.497 30.1852 20.497 30.3126 20.4829C30.4285 20.469 30.5278 20.4031 30.5774 20.3335C30.6213 20.2729 30.6462 20.1955 30.6631 20.1349H30.743C30.7125 20.2923 30.674 20.4471 30.6408 20.6043C30.3983 20.6043 30.1545 20.5937 29.9119 20.5937C29.6687 20.5937 29.4259 20.6043 29.183 20.6043V20.5213H29.2212C29.3208 20.5213 29.4289 20.5078 29.4289 20.3365V18.9173C29.4289 18.7734 29.3208 18.7596 29.2212 18.7596H29.183V18.6768C29.3291 18.6768 29.4729 18.6877 29.6191 18.6877C29.7602 18.6877 29.8979 18.6768 30.0392 18.6768V18.7596H29.9698C29.8648 18.7596 29.7824 18.7626 29.7824 18.9089V20.3335Z" fill="#1A1919"/>
<path fill-rule="evenodd" clip-rule="evenodd" d="M30.6411 20.616C30.3975 20.616 30.1543 20.6049 29.9121 20.6049C29.6691 20.6049 29.4261 20.616 29.1826 20.616H29.171V20.5093H29.2213C29.3212 20.5068 29.416 20.4999 29.4172 20.3364V18.9167C29.416 18.7822 29.3216 18.7733 29.2213 18.7715H29.171V18.6646H29.1826C29.3297 18.6646 29.4734 18.6753 29.619 18.6753C29.7596 18.6753 29.8971 18.6646 30.0393 18.6646H30.0504V18.7715H29.9699C29.8628 18.7742 29.7963 18.7694 29.7939 18.9087V20.3334C29.7946 20.4366 29.8622 20.4642 29.9486 20.4765C29.9972 20.4799 30.0486 20.4816 30.1017 20.4816C30.1692 20.4816 30.2394 20.4785 30.3107 20.471C30.4233 20.4576 30.52 20.3926 30.5678 20.3268C30.6104 20.2677 30.6345 20.192 30.6512 20.1319L30.6535 20.1228H30.7576L30.7552 20.1373C30.724 20.2952 30.6859 20.4492 30.6525 20.6067L30.6503 20.616H30.6411ZM30.631 20.5921C30.6629 20.4421 30.699 20.2955 30.7289 20.1465H30.6719C30.655 20.2066 30.6303 20.2808 30.587 20.3409C30.5354 20.4124 30.4331 20.4799 30.3134 20.4947C30.2412 20.5021 30.1693 20.5058 30.1017 20.5058C30.0482 20.5058 29.9966 20.5034 29.9462 20.4999C29.8565 20.49 29.7696 20.4515 29.7697 20.3334V18.9087C29.7697 18.7552 29.8668 18.7472 29.9699 18.7472H30.0268V18.6885C29.8907 18.6893 29.7565 18.6997 29.619 18.6997C29.4763 18.6997 29.3364 18.6893 29.195 18.6885V18.7472H29.2213C29.3198 18.7472 29.4404 18.7645 29.4404 18.9167V20.3364C29.4404 20.5151 29.3204 20.5336 29.2213 20.5336H29.195V20.5921C29.4336 20.5916 29.6723 20.5813 29.9121 20.5813C30.1522 20.5813 30.3919 20.5916 30.631 20.5921Z" fill="#1A1919"/>
<path fill-rule="evenodd" clip-rule="evenodd" d="M13.4614 8.92749C13.4614 6.34446 15.5554 4.25058 18.1382 4.25058C20.7212 4.25058 22.8151 6.34446 22.8151 8.92749C22.8151 11.5104 20.7212 13.6045 18.1382 13.6045C15.5554 13.6045 13.4614 11.5104 13.4614 8.92749Z" fill="#FFFFFE"/>
<path fill-rule="evenodd" clip-rule="evenodd" d="M20.9669 8.83555C20.965 7.63789 20.2164 6.61644 19.1615 6.21193V11.459C20.2164 11.054 20.965 10.0335 20.9669 8.83555ZM17.1491 11.458V6.21245C16.0951 6.61824 15.3476 7.63823 15.3449 8.83555C15.3476 10.0326 16.0951 11.0525 17.1491 11.458ZM18.1558 4.40056C15.7065 4.40151 13.7221 6.38629 13.7217 8.83555C13.7221 11.2846 15.7065 13.269 18.1558 13.2694C20.6051 13.269 22.5899 11.2846 22.5905 8.83555C22.5899 6.38629 20.6051 4.40151 18.1558 4.40056ZM18.1449 13.688C15.4648 13.7008 13.2588 11.5293 13.2588 8.88617C13.2588 5.99744 15.4648 3.99938 18.1449 3.99991H19.401C22.0495 3.99938 24.4667 5.9965 24.4667 8.88617C24.4667 11.5284 22.0495 13.688 19.401 13.688H18.1449Z" fill="#0069AA"/>
<path fill-rule="evenodd" clip-rule="evenodd" d="M7.0121 20.5213H7.05088C7.15018 20.5213 7.25513 20.5078 7.25513 20.364V18.9173C7.25513 18.7734 7.15018 18.7597 7.05088 18.7597H7.0121V18.6768C7.11977 18.6768 7.28544 18.6877 7.42112 18.6877C7.5591 18.6877 7.72456 18.6768 7.85439 18.6768V18.7597H7.8154C7.71652 18.7597 7.61136 18.7734 7.61136 18.9173V20.364C7.61136 20.5078 7.71652 20.5213 7.8154 20.5213H7.85439V20.6043C7.72195 20.6043 7.55586 20.5937 7.4183 20.5937C7.28272 20.5937 7.11977 20.6043 7.0121 20.6043V20.5213Z" fill="#1A1919"/>
<path fill-rule="evenodd" clip-rule="evenodd" d="M7.85441 20.616C7.72082 20.616 7.55556 20.6049 7.41811 20.6049C7.28295 20.6049 7.12052 20.616 7.01212 20.616H7.0001V20.5093H7.05069C7.15093 20.5068 7.24208 20.4988 7.24292 20.3638V18.9172C7.24208 18.782 7.15093 18.7733 7.05069 18.7715H7.0001V18.6646H7.01212C7.12052 18.6646 7.28609 18.6753 7.42114 18.6753C7.55849 18.6753 7.72385 18.6646 7.85441 18.6646H7.86674V18.7715H7.81594C7.71559 18.7733 7.62392 18.782 7.6234 18.9172V20.3638C7.62392 20.4988 7.71559 20.5068 7.81594 20.5093H7.86674V20.616H7.85441ZM7.84249 20.5924L7.84259 20.5336H7.81594C7.71716 20.5336 7.59978 20.5163 7.59915 20.3638V18.9172C7.59978 18.7645 7.71716 18.7475 7.81594 18.7475H7.84249V18.6885C7.71507 18.6886 7.55504 18.6997 7.42114 18.6997C7.28996 18.6997 7.13118 18.6893 7.02424 18.6885V18.7475H7.05069C7.14915 18.7475 7.26675 18.7645 7.26675 18.9172V20.3638C7.26675 20.5163 7.14915 20.5336 7.05069 20.5336H7.02424V20.5924C7.13118 20.5914 7.28713 20.5813 7.41811 20.5813C7.55263 20.5813 7.71225 20.5916 7.84249 20.5924Z" fill="#1A1919"/>
<path fill-rule="evenodd" clip-rule="evenodd" d="M30.7094 18.5983C30.876 18.5983 31.0003 18.7262 31.0003 18.8897C31.0003 19.0531 30.876 19.1797 30.7094 19.1797C30.5432 19.1797 30.4187 19.0531 30.4187 18.8897C30.4187 18.7262 30.5432 18.5983 30.7094 18.5983ZM30.7094 19.1256C30.8398 19.1256 30.9395 19.0147 30.9395 18.8897C30.9395 18.7645 30.841 18.6528 30.7094 18.6528C30.5785 18.6528 30.479 18.7645 30.479 18.8897C30.479 19.0147 30.5785 19.1256 30.7094 19.1256ZM30.5648 19.0431V19.0289C30.6004 19.0238 30.6071 19.0247 30.6071 19.003V18.7875C30.6071 18.7572 30.604 18.7467 30.566 18.7484V18.7336H30.7149C30.7659 18.7336 30.8131 18.758 30.8131 18.8109C30.8131 18.8541 30.7847 18.8862 30.7443 18.8986L30.7922 18.9653C30.8145 18.9954 30.8398 19.0238 30.8562 19.0339V19.0431H30.7996C30.7725 19.0431 30.7484 18.986 30.6951 18.9094H30.6629V19.0057C30.6629 19.0247 30.6696 19.0238 30.7053 19.0289V19.0431H30.5648ZM30.6629 18.8897H30.6972C30.7347 18.8897 30.752 18.8614 30.752 18.8155C30.752 18.7693 30.7253 18.7529 30.6953 18.7529H30.6629V18.8897Z" fill="#1A1919"/>
</svg>
