<svg width="37" height="24" viewBox="0 0 37 24" fill="none" xmlns="http://www.w3.org/2000/svg">
<rect x="0.5" width="36" height="24" rx="2" fill="white"/>
<path d="M15.7725 15.6618L16.8866 9.13353H18.668L17.5505 15.6618H15.7725ZM23.982 9.27363C23.6284 9.1402 23.078 9.00009 22.3875 9.00009C20.6295 9.00009 19.3885 9.88743 19.3785 11.1551C19.3685 12.0924 20.2625 12.6162 20.9397 12.9297C21.6302 13.25 21.8637 13.4535 21.8604 13.737C21.8571 14.174 21.3067 14.3742 20.7963 14.3742C20.0824 14.3742 19.7054 14.2741 19.1217 14.0306L18.8915 13.9272L18.6413 15.3883C19.0583 15.5717 19.8255 15.7285 20.6228 15.7352C22.4942 15.7352 23.7085 14.8612 23.7218 13.5035C23.7285 12.7596 23.2548 12.1958 22.2274 11.7288C21.6069 11.4253 21.2233 11.2251 21.2266 10.9182C21.2266 10.648 21.5502 10.3578 22.2474 10.3578C22.8278 10.3478 23.2515 10.4745 23.5784 10.608L23.7385 10.6847L23.982 9.27363ZM28.5622 9.13353H27.1878C26.7608 9.13353 26.4439 9.25028 26.2571 9.67393L23.6117 15.6585H25.4798C25.4798 15.6585 25.7867 14.8545 25.8534 14.6777C26.0569 14.6777 27.875 14.6811 28.1318 14.6811C28.1852 14.9112 28.3487 15.6585 28.3487 15.6585H29.9999L28.5622 9.13353ZM26.3805 13.3501C26.5273 12.9731 27.091 11.5253 27.091 11.5253C27.081 11.542 27.2378 11.1484 27.3279 10.9015L27.448 11.4653C27.448 11.4653 27.7882 13.0231 27.8616 13.3501H26.3805ZM14.2613 9.13353L12.52 13.5869L12.3332 12.6829C12.0096 11.6388 10.9989 10.5079 9.868 9.94414L11.4625 15.6518L13.3473 15.6485L16.1494 9.13019L14.2613 9.13353Z" fill="#0A4693"/>
<path d="M10.8922 9.13364H8.0234L8.00005 9.27041C10.2317 9.81082 11.7095 11.1185 12.3233 12.6863L11.6995 9.68405C11.5928 9.27041 11.2792 9.14698 10.8922 9.13364Z" fill="#F2AE13"/>
</svg>
