<svg width="37" height="24" viewBox="0 0 37 24" fill="none" xmlns="http://www.w3.org/2000/svg">
<rect x="0.5" width="36" height="24" rx="2" fill="white"/>
<path d="M15.3528 8.12544L12.4726 14.9969H10.5934L9.1759 9.51287C9.09007 9.17588 9.01534 9.05185 8.75378 8.90941C8.32633 8.67721 7.62046 8.46004 7 8.32491L7.04186 8.12544H10.0672C10.4522 8.12544 10.7989 8.3818 10.887 8.82569L11.636 12.8023L13.485 8.12544H15.3528ZM17.8932 8.12544L16.4234 14.9969H14.6456L16.1154 8.12544H17.8932ZM22.7156 12.7534C22.7231 10.9402 20.2085 10.8396 20.2249 10.0294C20.231 9.78314 20.4655 9.52088 20.9791 9.45387C21.2335 9.421 21.9363 9.39474 22.7323 9.76151L23.0438 8.30356C22.616 8.1489 22.0657 8 21.381 8C19.6236 8 18.3873 8.93343 18.3774 10.2711C18.3659 11.2606 19.2604 11.8121 19.9332 12.1416C20.6261 12.4782 20.8584 12.6945 20.8552 12.9953C20.8503 13.4563 20.3019 13.6604 19.792 13.668C18.8979 13.6822 18.3796 13.4264 17.9661 13.2338L17.6435 14.7401C18.0594 14.9307 18.826 15.0963 19.6199 15.1047C21.4882 15.1047 22.7101 14.182 22.7156 12.7534ZM27.3563 14.9969H29L27.564 8.12544H26.0474C25.7054 8.12544 25.418 8.32393 25.2904 8.62917L22.6229 14.9969H24.4898L24.86 13.9704H27.1409L27.3563 14.9969ZM25.3719 12.5624L26.308 9.9819L26.8457 12.5624H25.3719ZM20.1684 16.8883H19.4461V17.5606H20.2541V17.7627H19.2027V15.8975H20.2127V16.0997H19.4461V16.6889H20.1684V16.8883ZM20.6273 15.798H20.8707V17.7626H20.6273V15.798ZM21.4848 17.1372C21.4903 17.4666 21.6979 17.6022 21.944 17.6022C22.1185 17.6022 22.2263 17.5717 22.315 17.5331L22.3592 17.7074C22.2734 17.746 22.1241 17.7931 21.9108 17.7931C21.4987 17.7931 21.2524 17.5192 21.2524 17.1152C21.2524 16.7112 21.4903 16.3957 21.8805 16.3957C22.3205 16.3957 22.434 16.7776 22.434 17.0239C22.434 17.0736 22.4311 17.1096 22.4255 17.1372H21.4848ZM22.1987 16.9629C22.2015 16.8108 22.135 16.57 21.8611 16.57C21.6121 16.57 21.5068 16.7942 21.4875 16.9629H22.1987ZM23.7588 17.7156C23.6952 17.7461 23.554 17.7931 23.3742 17.7931C22.9702 17.7931 22.7074 17.5192 22.7074 17.1096C22.7074 16.6973 22.9894 16.3957 23.4267 16.3957C23.5706 16.3957 23.6978 16.4316 23.7643 16.4677L23.7091 16.6531C23.6508 16.6226 23.5595 16.5893 23.4267 16.5893C23.1195 16.5893 22.9536 16.819 22.9536 17.0958C22.9536 17.4057 23.1528 17.5966 23.4184 17.5966C23.5568 17.5966 23.6481 17.5635 23.7172 17.533L23.7588 17.7156ZM24.4418 16.1024V16.4234H24.7903V16.6086H24.4418V17.3309C24.4418 17.4971 24.4889 17.5911 24.6244 17.5911C24.6907 17.5911 24.7296 17.5856 24.7656 17.5744L24.7767 17.7599C24.7296 17.7765 24.6549 17.7931 24.5608 17.7931C24.4473 17.7931 24.356 17.7543 24.298 17.6908C24.2315 17.616 24.2038 17.4971 24.2038 17.3394V16.6086H23.9962V16.4234H24.2038V16.1743L24.4418 16.1024ZM25.1304 16.8412C25.1304 16.6835 25.1275 16.5479 25.1193 16.4233H25.3324L25.3435 16.689H25.3517C25.4127 16.5092 25.562 16.3957 25.7252 16.3957C25.7502 16.3957 25.7696 16.3985 25.7918 16.4011V16.6309C25.7668 16.6253 25.7421 16.6253 25.7086 16.6253C25.5373 16.6253 25.4153 16.7526 25.3822 16.9353C25.3767 16.9685 25.3739 17.0099 25.3739 17.0488V17.7627H25.1304V16.8412ZM27.2884 17.0819C27.2884 17.5772 26.9424 17.7931 26.6214 17.7931C26.2617 17.7931 25.9796 17.5274 25.9796 17.1041C25.9796 16.6585 26.2756 16.3957 26.6436 16.3957C27.0283 16.3957 27.2884 16.6751 27.2884 17.0819ZM26.2285 17.0958C26.2285 17.3891 26.3946 17.6105 26.6325 17.6105C26.865 17.6105 27.0392 17.3918 27.0392 17.0902C27.0392 16.8634 26.9258 16.5782 26.638 16.5782C26.3531 16.5782 26.2285 16.844 26.2285 17.0958ZM27.6615 16.7858C27.6615 16.6448 27.6586 16.5341 27.6504 16.4234H27.8662L27.8801 16.6448H27.8856C27.952 16.5202 28.107 16.3957 28.3283 16.3957C28.5136 16.3957 28.8014 16.5064 28.8014 16.9656V17.7626H28.558V16.9906C28.558 16.7748 28.4778 16.5949 28.2481 16.5949C28.0904 16.5949 27.9658 16.7084 27.9217 16.844C27.9104 16.8744 27.905 16.9159 27.905 16.9575V17.7626H27.6615V16.7858Z" fill="#0A4693"/>
</svg>
