<svg width="37" height="24" viewBox="0 0 37 24" fill="none" xmlns="http://www.w3.org/2000/svg">
<path d="M0.500795 2.0008C0.500356 0.895916 1.39592 0 2.5008 0H34.5C35.6046 0 36.5 0.895432 36.5 2V22C36.5 23.1046 35.6046 24 34.5 24H2.50875C1.40449 24 0.509186 23.1051 0.508747 22.0008L0.500795 2.0008Z" fill="white"/>
<path d="M36.5 13.2C36.5 13.2 26.3278 20.6564 7.7 24H34.5C35.6046 24 36.5 23.1046 36.5 22V13.2Z" fill="#F47424"/>
<path d="M7.19884 11.7879C6.93467 12.021 6.60057 12.1298 6.05669 12.1298H5.83136V9.30162H6.05669C6.5928 9.30162 6.91913 9.39486 7.19884 9.64349C7.48632 9.8999 7.65726 10.2962 7.65726 10.708C7.65726 11.1197 7.48632 11.5315 7.19884 11.7879ZM6.21985 8.57127H5V12.8446H6.21985C6.86474 12.8446 7.33093 12.6892 7.74273 12.3551C8.23222 11.9511 8.5197 11.3451 8.5197 10.7157C8.51193 9.44925 7.57179 8.57127 6.21985 8.57127Z" fill="#1A181A"/>
<path d="M8.90046 8.57127H9.73182V12.8446H8.90046V8.57127Z" fill="#1A181A"/>
<path d="M11.7676 10.2107C11.2703 10.0242 11.1227 9.89988 11.1227 9.67455C11.1227 9.40261 11.3869 9.2006 11.7443 9.2006C11.9929 9.2006 12.2027 9.30161 12.4125 9.55024L12.8476 8.98305C12.4902 8.67226 12.0629 8.50909 11.5889 8.50909C10.8352 8.50909 10.2525 9.03743 10.2525 9.73671C10.2525 10.3272 10.5245 10.6302 11.3014 10.9099C11.6278 11.0265 11.7909 11.1042 11.8764 11.1508C12.0396 11.2596 12.125 11.415 12.125 11.5937C12.125 11.9433 11.8531 12.1997 11.4801 12.1997C11.0839 12.1997 10.7653 11.9977 10.5711 11.6325L10.035 12.1531C10.4157 12.7203 10.8819 12.9689 11.5112 12.9689C12.3737 12.9689 12.9875 12.394 12.9875 11.5626C13.003 10.8711 12.7155 10.5603 11.7676 10.2107Z" fill="#1A181A"/>
<path d="M13.2593 10.7155C13.2593 11.9742 14.246 12.9454 15.5125 12.9454C15.8699 12.9454 16.1807 12.8754 16.5537 12.6967V11.7178C16.2196 12.0519 15.9243 12.1839 15.5514 12.1839C14.7122 12.1839 14.114 11.5779 14.114 10.7077C14.114 9.88409 14.7278 9.2392 15.5125 9.2392C15.9088 9.2392 16.2118 9.37905 16.5537 9.72092V8.74193C16.1885 8.55546 15.8855 8.47776 15.5281 8.47776C14.2771 8.47776 13.2593 9.47229 13.2593 10.7155Z" fill="#1A181A"/>
<path d="M23.1738 11.4463L22.0317 8.57147H21.1226L22.9329 12.9536H23.3835L25.2249 8.57147H24.3237L23.1738 11.4463Z" fill="#1A181A"/>
<path d="M25.6055 12.8446H27.9674V12.122H26.4369V10.9721H27.9131V10.2495H26.4369V9.30162H27.9674V8.57127H25.6055V12.8446Z" fill="#1A181A"/>
<path d="M29.5915 10.545H29.3507V9.24746H29.6071C30.1276 9.24746 30.4073 9.46501 30.4073 9.88458C30.4073 10.3119 30.1276 10.545 29.5915 10.545ZM31.2698 9.83796C31.2698 9.03768 30.7181 8.57926 29.7547 8.57926H28.5193V12.8526H29.3507V11.1355H29.4594L30.6094 12.8526H31.635L30.2908 11.05C30.9202 10.918 31.2698 10.4906 31.2698 9.83796Z" fill="#1A181A"/>
<path d="M16.8332 10.7235C16.8332 11.9808 17.8525 13 19.1097 13C20.3671 13 21.3863 11.9808 21.3863 10.7235C21.3863 9.46616 20.3671 8.44692 19.1097 8.44692C17.8525 8.44692 16.8332 9.46616 16.8332 10.7235Z" fill="url(#paint0_linear_22_148)"/>
<path d="M19.1098 8.44692C20.3671 8.44692 21.3863 9.46616 21.3863 10.7235C21.3863 11.9808 20.3671 13 19.1098 13C17.8525 13 16.8332 11.9808 16.8332 10.7235C16.8332 9.46616 17.8525 8.44692 19.1098 8.44692Z" fill="url(#paint1_linear_22_148)"/>
<path d="M31.6429 8.78898H31.6273V8.68798H31.6429C31.6895 8.68798 31.7127 8.70352 31.7127 8.7346C31.7127 8.77344 31.6895 8.78898 31.6429 8.78898ZM31.7983 8.7346C31.7983 8.6569 31.7439 8.61805 31.6583 8.61805H31.5341V8.991H31.6273V8.84337L31.736 8.991H31.8449L31.7206 8.8356C31.7672 8.82783 31.7983 8.78898 31.7983 8.7346Z" fill="#1A181A"/>
<path d="M31.674 9.07623C31.5341 9.07623 31.4099 8.95968 31.4099 8.80429C31.4099 8.65666 31.5264 8.53234 31.674 8.53234C31.8138 8.53234 31.9304 8.65666 31.9304 8.80429C31.9304 8.95191 31.8138 9.07623 31.674 9.07623ZM31.674 8.47796C31.4953 8.47796 31.3476 8.62558 31.3476 8.80429C31.3476 8.98299 31.4953 9.13062 31.674 9.13062C31.8527 9.13062 32.0003 8.98299 32.0003 8.80429C32.0003 8.62558 31.8527 8.47796 31.674 8.47796Z" fill="#1A181A"/>
<defs>
<linearGradient id="paint0_linear_22_148" x1="20.2733" y1="12.5452" x2="18.6996" y2="10.0813" gradientUnits="userSpaceOnUse">
<stop stop-color="#F79322"/>
<stop offset="0.2502" stop-color="#F68D23"/>
<stop offset="0.5331" stop-color="#F57F24"/>
<stop offset="0.6196" stop-color="#F57924"/>
<stop offset="0.7232" stop-color="#F47424"/>
<stop offset="1" stop-color="#F36827"/>
</linearGradient>
<linearGradient id="paint1_linear_22_148" x1="20.0249" y1="12.5121" x2="17.7249" y2="8.01663" gradientUnits="userSpaceOnUse">
<stop stop-color="#F57924"/>
<stop offset="0.3587" stop-color="#E26327"/>
<stop offset="0.703" stop-color="#D4552D"/>
<stop offset="0.9816" stop-color="#D05130"/>
<stop offset="1" stop-color="#D05130"/>
</linearGradient>
</defs>
</svg>
