<svg width="37" height="24" viewBox="0 0 37 24" fill="none" xmlns="http://www.w3.org/2000/svg">
<rect x="0.5" width="36" height="24" rx="2" fill="#286CB4"/>
<path d="M10.4666 10.219L11.0836 11.7175H9.84958L10.4666 10.219ZM23.328 10.2831H20.9481V10.9482H23.288V11.9419H20.9481V12.6791H23.328V13.2721L24.9868 11.4771L23.328 9.602V10.2831ZM12.0773 8.40801H15.2746L15.9878 9.95459L16.6449 8.39999H24.9387L25.8042 9.35358L26.6937 8.39999H30.5L27.6873 11.4851L30.476 14.5462H26.6055L25.7401 13.5926L24.8426 14.5462H11.316L10.9234 13.5926H10.0179L9.62521 14.5462H6.5L9.12838 8.39999H11.8689L12.0773 8.40801ZM19.0088 9.27345H17.2139L16.0119 12.1022L14.7137 9.27345H12.9347V13.1199L11.284 9.27345H9.68932L7.78214 13.6808H9.02421L9.41686 12.7272H11.5083L11.901 13.6808H14.0806V10.5315L15.483 13.6808H16.4366L17.8309 10.5396V13.6808H19.0008L19.0088 9.27345ZM26.4773 11.4851L28.5047 9.27345H27.0462L25.7641 10.6517L24.522 9.27345H19.8102V13.6888H24.4579L25.7481 12.2945L26.9902 13.6888H28.4886L26.4773 11.4851Z" fill="white"/>
</svg>
