<svg width="37" height="24" viewBox="0 0 37 24" fill="none" xmlns="http://www.w3.org/2000/svg">
<rect x="0.5" width="36" height="24" rx="2" fill="white"/>
<mask id="mask0_22_128" style="mask-type:luminance" maskUnits="userSpaceOnUse" x="8" y="3" width="22" height="18">
<path d="M30 2.99991H8.00005V20.1137H30V2.99991Z" fill="white"/>
</mask>
<g mask="url(#mask0_22_128)">
<path fill-rule="evenodd" clip-rule="evenodd" d="M29.7994 14.0118V13.7505H29.7326L29.6536 13.9328L29.5746 13.7505H29.5077V14.0118H29.5563V13.8112L29.6293 13.9814H29.6779L29.7508 13.8112V14.0118H29.7994ZM29.3619 14.0118V13.793H29.453V13.7505H29.2281V13.793H29.3193V14.0118H29.3619Z" fill="#0099DF"/>
<path fill-rule="evenodd" clip-rule="evenodd" d="M16.0344 4.45822H21.9841V15.1483H16.0344V4.45822Z" fill="#6C6BBD"/>
<path fill-rule="evenodd" clip-rule="evenodd" d="M16.4171 9.80037C16.4171 7.63076 17.432 5.69816 19.0121 4.4523C17.8574 3.5407 16.3988 2.99982 14.8127 2.99982C11.0569 2.99982 8.01211 6.04457 8.01211 9.80037C8.01211 13.5562 11.0569 16.6009 14.8127 16.6009C16.3988 16.6009 17.8574 16.06 19.0121 15.1484C17.432 13.9026 16.4171 11.97 16.4171 9.80037Z" fill="#EB001B"/>
<path fill-rule="evenodd" clip-rule="evenodd" d="M30.0062 9.80037C30.0062 13.5562 26.9614 16.6009 23.2056 16.6009C21.6194 16.6009 20.1609 16.06 19.0062 15.1484C20.5863 13.9026 21.6012 11.97 21.6012 9.80037C21.6012 7.63076 20.5863 5.69816 19.0062 4.4523C20.1609 3.5407 21.6194 2.99982 23.2056 2.99982C26.9675 3.00589 30.0062 6.05065 30.0062 9.80037Z" fill="#0099DF"/>
<path fill-rule="evenodd" clip-rule="evenodd" d="M23.9899 18.1688C24.0689 18.1688 24.1844 18.181 24.2694 18.2174L24.1479 18.5882C24.0628 18.5517 23.9838 18.5456 23.9048 18.5456C23.6496 18.5456 23.5219 18.7097 23.5219 19.0075V20.0224H23.1269V18.2174H23.5158V18.4362C23.6192 18.2721 23.765 18.1688 23.9899 18.1688ZM22.5374 18.5699H21.8932V19.3843C21.8932 19.5666 21.96 19.6882 22.1545 19.6882C22.2578 19.6882 22.3855 19.6517 22.5009 19.5848L22.6164 19.9191C22.4949 20.0042 22.2943 20.0589 22.1241 20.0589C21.6623 20.0589 21.4982 19.8097 21.4982 19.3904V18.5699H21.1335V18.2114H21.4982V17.6644H21.8932V18.2114H22.5374V18.5699ZM17.5114 18.9589C17.554 18.6975 17.712 18.5213 17.9915 18.5213C18.2468 18.5213 18.4048 18.6793 18.4473 18.9589H17.5114ZM18.8606 19.1169C18.8545 18.5517 18.5081 18.1688 18.0037 18.1688C17.475 18.1688 17.1042 18.5517 17.1042 19.1169C17.1042 19.6882 17.4871 20.065 18.028 20.065C18.3015 20.065 18.5507 19.9981 18.7694 19.8097L18.575 19.518C18.423 19.6395 18.2286 19.7064 18.0523 19.7064C17.7971 19.7064 17.5661 19.5909 17.5114 19.2627H18.8545C18.8545 19.2202 18.8606 19.1716 18.8606 19.1169ZM20.5866 18.6732C20.4772 18.6064 20.2523 18.5152 20.0214 18.5152C19.8087 18.5152 19.675 18.5942 19.675 18.7279C19.675 18.8495 19.8087 18.8799 19.9788 18.9042L20.1612 18.9285C20.5562 18.9832 20.7932 19.1533 20.7932 19.4694C20.7932 19.8158 20.4893 20.0589 19.9728 20.0589C19.675 20.0589 19.4076 19.9859 19.1888 19.8219L19.3711 19.518C19.5048 19.6213 19.6993 19.7064 19.9728 19.7064C20.2402 19.7064 20.386 19.6274 20.386 19.4876C20.386 19.3843 20.2827 19.3296 20.07 19.2992L19.8877 19.2749C19.4866 19.2202 19.2617 19.0379 19.2617 18.7401C19.2617 18.3815 19.5595 18.1627 20.0153 18.1627C20.3009 18.1627 20.5623 18.2296 20.7507 18.3511L20.5866 18.6732ZM25.4302 18.5395C25.3512 18.5395 25.2722 18.5517 25.2054 18.5821C25.1385 18.6125 25.0777 18.6489 25.023 18.7036C24.9744 18.7522 24.9319 18.813 24.9015 18.8859C24.8711 18.9589 24.8589 19.0379 24.8589 19.123C24.8589 19.208 24.8711 19.287 24.9015 19.36C24.9319 19.4329 24.9683 19.4937 25.023 19.5423C25.0717 19.5909 25.1324 19.6335 25.2054 19.6638C25.2722 19.6942 25.3512 19.7064 25.4302 19.7064C25.5092 19.7064 25.5882 19.6942 25.6551 19.6638C25.7219 19.6335 25.7827 19.597 25.8374 19.5423C25.886 19.4937 25.9286 19.4268 25.9589 19.36C25.9893 19.287 26.0015 19.208 26.0015 19.123C26.0015 19.0379 25.9893 18.9589 25.9589 18.8859C25.9286 18.813 25.8921 18.7522 25.8374 18.7036C25.7888 18.655 25.728 18.6125 25.6551 18.5821C25.5821 18.5578 25.5092 18.5395 25.4302 18.5395ZM25.4302 18.1688C25.57 18.1688 25.6976 18.1931 25.8192 18.2417C25.9407 18.2904 26.044 18.3572 26.1291 18.4423C26.2142 18.5274 26.2871 18.6307 26.3357 18.7462C26.3844 18.8616 26.4087 18.9893 26.4087 19.123C26.4087 19.2567 26.3844 19.3843 26.3357 19.4998C26.2871 19.6152 26.2203 19.7185 26.1291 19.8036C26.044 19.8887 25.9407 19.9556 25.8192 20.0042C25.6976 20.0528 25.57 20.0771 25.4302 20.0771C25.2904 20.0771 25.1628 20.0528 25.0413 20.0042C24.9197 19.9556 24.8225 19.8887 24.7313 19.8036C24.6462 19.7185 24.5794 19.6152 24.5308 19.4998C24.4821 19.3843 24.4578 19.2567 24.4578 19.123C24.4578 18.9893 24.4821 18.8616 24.5308 18.7462C24.5794 18.6307 24.6462 18.5274 24.7313 18.4423C24.8164 18.3572 24.9197 18.2904 25.0413 18.2417C25.1567 18.1931 25.2844 18.1688 25.4302 18.1688ZM15.2203 19.1169C15.2203 18.8009 15.4269 18.5395 15.7672 18.5395C16.0893 18.5395 16.3081 18.7887 16.3081 19.1169C16.3081 19.4451 16.0893 19.6942 15.7672 19.6942C15.4269 19.6942 15.2203 19.4329 15.2203 19.1169ZM16.6788 19.1169V18.2114H16.2838V18.4301C16.1562 18.2661 15.9678 18.1627 15.7125 18.1627C15.2081 18.1627 14.807 18.5578 14.807 19.1108C14.807 19.6638 15.202 20.0589 15.7125 20.0589C15.9678 20.0589 16.1562 19.9556 16.2838 19.7915V20.0103H16.6788V19.1169ZM14.4667 20.0163V18.8859C14.4667 18.4605 14.1932 18.1749 13.7556 18.1688C13.5247 18.1627 13.2877 18.2357 13.1236 18.4909C13.002 18.2904 12.8015 18.1688 12.528 18.1688C12.3335 18.1688 12.1451 18.2235 11.9993 18.4362V18.2114H11.6042V20.0163H11.9993V19.0136C11.9993 18.6975 12.1755 18.5335 12.4429 18.5335C12.7042 18.5335 12.8379 18.7036 12.8379 19.0075V20.0103H13.233V19.0075C13.233 18.6915 13.4153 18.5274 13.6766 18.5274C13.944 18.5274 14.0717 18.6975 14.0717 19.0014V20.0042L14.4667 20.0163ZM26.828 19.8826V19.9252H26.8705C26.8827 19.9252 26.8888 19.9252 26.8949 19.9191C26.9009 19.913 26.9009 19.9069 26.9009 19.9009C26.9009 19.8948 26.8949 19.8887 26.8949 19.8826C26.8888 19.8766 26.8827 19.8766 26.8705 19.8766L26.828 19.8826ZM26.8705 19.8522C26.8888 19.8522 26.907 19.8583 26.9192 19.8644C26.9313 19.8766 26.9374 19.8887 26.9374 19.9009C26.9374 19.913 26.9313 19.9252 26.9252 19.9373C26.9192 19.9434 26.9009 19.9495 26.8888 19.9556L26.9435 20.0163H26.9009L26.8523 19.9556H26.8341V20.0163H26.7976V19.8522H26.8705ZM26.8584 20.0771C26.8766 20.0771 26.8949 20.071 26.9131 20.065C26.9313 20.0589 26.9435 20.0467 26.9556 20.0346C26.9678 20.0224 26.9799 20.0103 26.986 19.992C26.9921 19.9738 26.9982 19.9556 26.9982 19.9373C26.9982 19.9191 26.9921 19.9009 26.986 19.8826C26.9799 19.8644 26.9678 19.8522 26.9556 19.8401C26.9435 19.8279 26.9313 19.8158 26.9131 19.8097C26.8949 19.8036 26.8766 19.7975 26.8584 19.7975C26.8402 19.7975 26.8219 19.8036 26.8037 19.8097C26.7855 19.8158 26.7733 19.8279 26.7612 19.8401C26.749 19.8522 26.7368 19.8705 26.7308 19.8826C26.7247 19.9009 26.7186 19.9191 26.7186 19.9373C26.7186 19.9556 26.7247 19.9738 26.7308 19.992C26.7368 20.0103 26.749 20.0224 26.7612 20.0346C26.7733 20.0467 26.7915 20.0589 26.8037 20.065C26.8219 20.071 26.8402 20.0771 26.8584 20.0771ZM26.8584 19.755C26.8827 19.755 26.907 19.7611 26.9313 19.7672C26.9556 19.7732 26.9739 19.7915 26.9921 19.8036C27.0103 19.8219 27.0225 19.8401 27.0286 19.8583C27.0407 19.8826 27.0407 19.9009 27.0407 19.9252C27.0407 19.9495 27.0346 19.9738 27.0286 19.992C27.0164 20.0163 27.0042 20.0346 26.9921 20.0467C26.9739 20.065 26.9556 20.0771 26.9313 20.0832C26.907 20.0953 26.8888 20.0953 26.8584 20.0953C26.8341 20.0953 26.8098 20.0893 26.7855 20.0832C26.7612 20.071 26.7429 20.0589 26.7247 20.0467C26.7065 20.0285 26.6943 20.0103 26.6882 19.992C26.6761 19.9677 26.6761 19.9495 26.6761 19.9252C26.6761 19.9009 26.6821 19.8766 26.6882 19.8583C26.7004 19.834 26.7125 19.8158 26.7247 19.8036C26.7429 19.7854 26.7612 19.7732 26.7855 19.7672C26.8098 19.7611 26.8341 19.755 26.8584 19.755Z" fill="#231F20"/>
</g>
</svg>
