<svg width="20" height="20" viewBox="0 0 20 20" fill="none" xmlns="http://www.w3.org/2000/svg">
<path d="M7.9583 12.625L15.0208 5.5625C15.1875 5.39583 15.3854 5.3125 15.6146 5.3125C15.8437 5.3125 16.0416 5.39583 16.2083 5.5625C16.375 5.72917 16.4583 5.92708 16.4583 6.15625C16.4583 6.38542 16.375 6.58333 16.2083 6.75L8.54164 14.4167C8.37497 14.5833 8.18052 14.6667 7.9583 14.6667C7.73608 14.6667 7.54164 14.5833 7.37497 14.4167L3.79164 10.8333C3.62497 10.6667 3.54511 10.4688 3.55205 10.2396C3.559 10.0104 3.6458 9.8125 3.81247 9.64583C3.97914 9.47917 4.17705 9.39583 4.40622 9.39583C4.63539 9.39583 4.8333 9.47917 4.99997 9.64583L7.9583 12.625Z" fill="#32A75D"/>
</svg>
