<svg width="20" height="18" viewBox="0 0 20 18" fill="none" xmlns="http://www.w3.org/2000/svg">
<path d="M11.5913 0C11.8547 1.33914 12.0962 2.70024 12.3377 4.01743C12.645 5.5761 12.9524 6.91524 13.2597 8.03485C14.6867 13.106 16.7722 16.2014 19.4724 17.3869H17.9796C16.9259 17.3869 16.1356 17.1893 15.5428 16.7942C14.972 16.421 14.3574 15.8282 13.6988 15.0379C12.645 13.7646 12.0962 13.106 12.0742 13.0841C10.6692 11.5913 8.82516 10.4936 6.54204 9.81306L5.86149 10.5814C5.04922 11.5474 4.14914 12.4474 3.16125 13.3475C2.0636 14.3135 1.25133 14.8184 0.680547 14.8184C0.285391 14.8184 0.0658594 14.7086 0.0219531 14.4671L0 14.4013L0.0219531 14.1817C0.0439063 13.8524 0.131719 13.6549 0.35125 13.589C1.95383 12.667 2.87586 12.1181 3.18321 11.9206C3.95157 11.4156 4.82969 10.6692 5.88344 9.63743C5.29071 9.50571 4.71993 9.4179 4.215 9.4179C3.57836 9.4179 2.94172 9.52767 2.34899 9.7911C2.23922 9.85696 2.04164 9.92282 1.80016 10.0545C2.48071 9.43985 3.35883 9.0886 4.47844 9.06665H4.61016H4.71993C5.2029 9.06665 5.70782 9.13251 6.23469 9.24228C7.92509 7.22259 9.30813 5.15899 10.3838 3.00758C10.9107 1.84406 11.3059 0.900079 11.5913 0ZM11.8327 11.3937C11.6132 10.9327 11.3717 10.2082 11.1302 9.17642C10.779 7.66165 10.4717 6.01516 10.2521 4.19305C9.48376 5.79563 8.3422 7.48602 6.84938 9.28618C9.06665 9.83501 10.7351 10.5375 11.8327 11.3937Z" fill="#10453B"/>
<path d="M11.5913 0.109766C11.8547 1.44891 12.0962 2.81 12.3377 4.12719C12.645 5.68587 12.9523 7.02501 13.2597 8.12267C14.6866 13.1938 16.7722 16.3332 19.5383 17.5406L19.5822 17.4308V17.343H18.0894C17.0576 17.343 16.2453 17.1454 15.6965 16.7722C15.1477 16.399 14.511 15.8063 13.8744 15.0379C13.3475 14.4013 12.9523 13.9183 12.6889 13.589C12.5572 13.4353 12.4474 13.3036 12.3816 13.2158C12.3377 13.1719 12.3157 13.128 12.2937 13.106L12.2498 13.0621C10.8448 11.5474 8.95687 10.4497 6.6518 9.76916C6.60789 9.7472 6.56398 9.76916 6.54203 9.81306L5.86148 10.5814C5.04922 11.5474 4.14914 12.4474 3.16125 13.3256C2.61242 13.8085 2.15141 14.1817 1.75625 14.4232C1.36109 14.6647 1.00984 14.7745 0.768359 14.7745C0.570781 14.7745 0.439063 14.7306 0.35125 14.6867C0.263438 14.6428 0.241484 14.5769 0.219531 14.4891L0.197578 14.4232L0.219531 14.2256C0.219531 14.0939 0.263438 13.9622 0.307344 13.8964C0.35125 13.8085 0.417109 13.7646 0.482969 13.7207C2.08555 12.7987 3.00758 12.2499 3.33687 12.0303C4.10523 11.5254 5.00531 10.757 6.05906 9.7472C6.08102 9.72525 6.10297 9.68134 6.08102 9.63744C6.08102 9.59353 6.03711 9.57158 5.9932 9.54963C5.40047 9.41791 4.82969 9.33009 4.30281 9.33009C3.64422 9.33009 3.00758 9.46181 2.39289 9.72525C2.28312 9.79111 2.08555 9.85697 1.84406 9.98869L1.88797 10.0985L1.95383 10.1863C2.61242 9.59353 3.46859 9.24228 4.56625 9.22033H4.74188H4.82969C5.31266 9.22033 5.79562 9.28619 6.3225 9.39595C6.36641 9.39595 6.41031 9.39595 6.43227 9.35205C8.12266 7.33236 9.52766 5.24681 10.6034 3.0954C11.1522 2.04164 11.5693 1.05375 11.8327 0.175625V0.109766L11.701 0.0878126H11.5913V0.109766L11.701 0.0878126L11.5913 0.0658595C11.3059 0.943986 10.9107 1.90992 10.3838 2.96368C9.30812 5.11509 7.92508 7.20064 6.23469 9.17642L6.3225 9.24228L6.34445 9.13251C5.79563 9.02275 5.31266 8.95689 4.80773 8.95689H4.69797H4.5882C3.44664 9.02275 2.52461 9.35205 1.84406 9.98869C1.80016 10.0326 1.80016 10.0985 1.82211 10.1204C1.84406 10.1643 1.90992 10.1863 1.93188 10.1643C2.17336 10.0545 2.37094 9.96673 2.4807 9.90088C3.07344 9.63744 3.66617 9.52767 4.32477 9.52767C4.85164 9.52767 5.37852 9.59353 5.97125 9.7472L5.9932 9.63744L5.92734 9.57158C4.87359 10.5814 3.97352 11.3498 3.22711 11.8547C2.91977 12.0523 1.99773 12.6231 0.395156 13.5231L0.439063 13.589L0.395156 13.4792C0.285391 13.5451 0.175625 13.611 0.109766 13.7427C0.0439062 13.8524 0 14.0061 0 14.1598H0.109766H0.0219531L0 14.3793V14.4232L0.0219531 14.511L0.109766 14.4891L0 14.511C0.0219531 14.6647 0.109766 14.7964 0.241484 14.8623C0.373203 14.9501 0.548828 14.9721 0.768359 14.9721C1.09766 14.9721 1.44891 14.8403 1.86602 14.5989C2.28312 14.3354 2.76609 13.9842 3.31492 13.4792C4.30281 12.5792 5.22484 11.6571 6.03711 10.7131L6.71766 9.94478L6.62984 9.87892L6.60789 9.98869C8.89102 10.6692 10.7131 11.7449 12.1181 13.2378C12.1181 13.2378 12.162 13.3036 12.2279 13.3695C12.4474 13.6329 12.9523 14.2256 13.7207 15.1916C14.3573 15.9819 14.972 16.5746 15.5648 16.9698C16.1575 17.3869 16.9917 17.5845 18.0674 17.5845H19.5602C19.6041 17.5845 19.67 17.5406 19.67 17.4967C19.67 17.4528 19.648 17.3869 19.6041 17.3869C16.9259 16.2234 14.8623 13.1499 13.4353 8.12267C13.106 7.00306 12.8206 5.66392 12.5133 4.12719C12.3157 2.7661 12.0742 1.405 11.8108 0.0878126C11.8108 0.0219532 11.7449 0 11.701 0C11.6571 0 11.5913 0.0439063 11.5913 0.109766ZM11.9645 11.4815L12.0742 11.4376C11.8547 10.9985 11.6352 10.2521 11.3937 9.26423C11.0424 7.77142 10.7351 6.10298 10.5155 4.28087C10.5155 4.23696 10.4716 4.19305 10.4277 4.19305C10.3838 4.19305 10.3399 4.21501 10.318 4.25891C9.54961 5.83954 8.40805 7.52993 6.93719 9.35205C6.91523 9.374 6.91523 9.41791 6.91523 9.46181C6.93719 9.50572 6.95914 9.52767 7.00305 9.52767C9.22031 10.0545 10.8448 10.7351 11.9425 11.6132C11.9864 11.6352 12.0303 11.6352 12.0523 11.6352C12.0962 11.6132 12.1181 11.5693 12.1181 11.5254V11.5035L12.0742 11.4595L11.9645 11.4815H11.8547V11.5035L11.9645 11.4815L12.0303 11.4156C10.9107 10.5156 9.24227 9.79111 7.00305 9.28619L6.98109 9.39595L7.06891 9.46181C8.56172 7.6397 9.70328 5.92735 10.4716 4.34673L10.3619 4.30282L10.2521 4.32477C10.4716 6.14689 10.779 7.81533 11.1522 9.33009C11.3937 10.3399 11.6132 11.0863 11.8547 11.5693L11.9645 11.4815Z" fill="#10453B"/>
</svg>
