<svg width="21" height="26" viewBox="0 0 21 26" fill="none" xmlns="http://www.w3.org/2000/svg">
<path d="M1.85476 17.4778C-0.618254 15.0048 -0.618251 10.9952 1.85476 8.52222L10.377 0L14.1686 3.79167L6.2242 11.7361C5.52618 12.4341 5.52617 13.5659 6.2242 14.2639L14.1686 22.2083L10.377 26L1.85476 17.4778Z" fill="#29CC00"/>
<path d="M7.30754 12.8194L15.252 4.875L18.8992 8.52222C21.3722 10.9952 21.3722 15.0048 18.8992 17.4778L15.252 21.125L11.4603 17.3333L15.7936 13L14.7103 11.9167L10.377 16.25L7.30754 13.1806C7.20782 13.0808 7.20782 12.9192 7.30754 12.8194Z" fill="#29CC00"/>
<path d="M1.85485 8.52222C-0.618161 10.9952 -0.618161 15.0048 1.85485 17.4778L3.04651 18.6694L3.26318 18.8861L3.27555 18.8737C3.19629 18.8108 3.11979 18.7427 3.04651 18.6694C2.00945 17.6324 2.00945 15.951 3.04651 14.9139L14.1687 3.79167L10.3771 0L1.85485 8.52222Z" fill="#278348"/>
<path d="M17.7076 7.33056C18.7447 8.36763 18.7447 10.049 17.7076 11.0861L11.4604 17.3333L15.2521 21.125L18.8993 17.4778C21.3723 15.0048 21.3723 10.9952 18.8993 8.52223L17.7076 7.33056Z" fill="#278348"/>
<path d="M17.7076 7.33056L17.491 7.1139L17.4786 7.12626C17.5579 7.18918 17.6343 7.25728 17.7076 7.33056Z" fill="#278348"/>
</svg>
