<svg width="24" height="24" viewBox="0 0 24 24" fill="none" xmlns="http://www.w3.org/2000/svg">
<path fill-rule="evenodd" clip-rule="evenodd" d="M12 4C9.12095 4 6.59712 5.52084 5.18804 7.80297L7.37 10H2V4.59291L3.74676 6.35173C5.54865 3.72386 8.57301 2 12 2C17.1858 2 21.4497 5.94741 21.9508 11.0014C22.0053 11.551 21.5523 12 21 12C20.4477 12 20.0066 11.55 19.9384 11.002C19.4471 7.05471 16.0803 4 12 4ZM2.04924 12.9986C1.99475 12.449 2.44772 12 3 12C3.55228 12 3.99344 12.45 4.06165 12.998C4.55286 16.9453 7.9197 20 12 20C14.879 20 17.4029 18.4792 18.812 16.197L16.63 14H22V19.4071L20.2532 17.6483C18.4513 20.2761 15.427 22 12 22C6.81417 22 2.55031 18.0526 2.04924 12.9986ZM8.46436 9.87866L9.87857 8.46445L12 10.5858L14.1213 8.46448L15.5356 9.87869L13.4142 12.0001L15.5354 14.1213L14.1212 15.5355L12 13.4143L9.8787 15.5355L8.46448 14.1213L10.5858 12.0001L8.46436 9.87866Z" fill="#278348"/>
</svg>
