<svg width="24" height="24" viewBox="0 0 24 24" fill="none" xmlns="http://www.w3.org/2000/svg">
<path fill-rule="evenodd" clip-rule="evenodd" d="M5.18804 7.80297C6.59712 5.52084 9.12095 4 12 4C16.0803 4 19.4471 7.05471 19.9384 11.002C20.0066 11.55 20.4477 12 21 12C21.5523 12 22.0053 11.551 21.9508 11.0014C21.4497 5.94741 17.1858 2 12 2C8.57301 2 5.54865 3.72386 3.74676 6.35173L2 4.59291V10H7.37L5.18804 7.80297ZM3 12C2.44772 12 1.99475 12.449 2.04924 12.9986C2.55031 18.0526 6.81417 22 12 22C15.427 22 18.4513 20.2761 20.2532 17.6483L22 19.4071V14H16.63L18.812 16.197C17.4029 18.4792 14.879 20 12 20C7.9197 20 4.55286 16.9453 4.06165 12.998C3.99344 12.45 3.55228 12 3 12ZM8.19493 13.076L8.77973 12.4912L10.1442 12.6862L11.4885 11.3419L8 9.80273L8.77973 9.023L13.2429 9.58753L14.5871 8.24328C14.7496 8.08083 14.9445 7.99974 15.1719 8C15.3993 7.99974 15.5943 8.08083 15.7567 8.24328C15.9192 8.40572 16.0003 8.60065 16 8.82807C16.0003 9.05549 15.9192 9.25042 15.7567 9.41287L14.4125 10.7571L14.977 15.2203L14.1973 16L12.6581 12.5115L11.3138 13.8558L11.5088 15.2203L10.924 15.8051L8.19493 13.076Z" fill="white"/>
</svg>
